<svg xmlns="http://www.w3.org/2000/svg" viewBox="475 305 575 415" xml:space="preserve">
<!-- Прозрачный фон: без заливки холста, только контуры логотипа -->
<g fill="#111111">
	<path d="M716.22,364.02c19.29,27.14,38.01,53.48,57.3,80.62c-3.94,0.51-7.08,0.92-11.6,1.5c-2.13,3.62-4.42,1.32-6.92-2.31
		c-11.06-16.04-22.24-32.01-33.37-48c-1.51-2.17-3.01-4.35-5.26-7.59c-24.92,40.21-49.4,79.72-74.69,120.54
		c6.69-1.55,12.07-2.73,17.41-4.04c74.7-18.3,149.4-36.61,224.1-54.94c47.69-11.7,95.37-23.48,143.09-35.07
		c4.63-1.12,9.11,0.13,12.31,3.33c-9.15,11.46-22.91,11.55-35.38,14.72c-21.91,5.57-43.87,10.95-65.82,16.38
		c-34.04,8.42-68.11,16.75-102.14,25.23c-51.67,12.87-103.35,25.67-154.94,38.83c-19.66,5.01-39.07,10.96-58.63,16.37
		c-1.76,0.49-3.74,0.15-5.62,0.19c0.3-1.66,0.94-3.33,0.85-4.97c-0.31-5.74,5.27-7.45,7.66-11.4
		c28.43-46.97,57.24-93.72,85.96-140.52C712.09,370.38,713.73,367.91,716.22,364.02z"/>
	<path d="M948.33,465.55c3.69,6.76-0.98,10.96-3.63,15.38c-18.66,31.11-37.65,62.03-56.26,93.17c-6.04,10.11-11.22,20.72-16.9,31.05
		c-1.31,2.39-2.92,4.66-4.72,6.7c-0.49,0.55-2.89,0.49-3.19-0.02c-10.35-17.28-24.85-31.1-37.97-46.08c-1.55-1.77-2.57-4-3.83-6.01
		c0.46-0.35,0.93-0.7,1.39-1.05c1.42,0.96,2.84,1.92,3.7,2.5c1.77-2.41,3.52-4.79,6.11-8.31c10.66,12.93,20.73,25.14,31.19,37.82
		c20.32-34.89,40.28-69.15,60.98-104.69c-125.4,32.56-251.17,57.98-374.86,94.06c-0.45-2.61-0.72-4.12-1.01-5.83
		c-0.81,0-1.61,0.05-2.39-0.01c-1.19-0.09-2.37-0.26-3.55-0.4c0.85-0.99,1.57-2.13,2.56-2.93c11.93-9.56,27.09-9.89,40.9-13.54
		c52.13-13.74,104.52-26.55,156.83-39.6c40.85-10.19,81.78-20.05,122.59-30.4C893.7,480.39,920.95,472.84,948.33,465.55z"/>
	<path d="M673.66,486.2c-1.32-0.33-2.54-0.64-4.07-1.03c0.33-0.9,0.39-1.86,0.77-2.01c8.05-3.23,10.48-11.15,14.59-17.58
		c9.77-15.27,19.32-30.68,28.96-46.04c0.95-1.51,1.88-3.04,3.49-5.66c3.04,5.06,5.73,9.53,7.92,13.18
		c-2.16,2.36-4.09,3.95-5.38,5.96c-8.32,13.02-16.51,26.14-25.59,40.58c3.12-0.6,4.79-0.85,6.43-1.25
		c43.35-10.54,86.73-20.97,130.05-31.67c60.74-15.01,121.44-30.16,182.13-45.38c21.14-5.3,42.16-11.07,63.3-16.34
		c3.29-0.82,6.96-0.11,10.45-0.11c0.13,0.54,0.25,1.08,0.38,1.61c-2.36,0.86-4.72,1.71-7.07,2.57c0.02,0.17,0.04,0.34,0.06,0.51
		c2.04-0.25,4.07-0.49,6.11-0.74c0.13,0.48,0.26,0.95,0.39,1.43c-2.29,0.94-4.59,1.88-8.5,3.48c1.65,0.64,2.68,1.04,3.72,1.44
		c-0.02,0.39-0.03,0.78-0.05,1.17c-3.41,0.92-6.81,1.93-10.24,2.75c-28.8,6.92-57.64,13.63-86.39,20.74
		c-45.41,11.23-90.75,22.74-136.14,34.07c-35.36,8.82-70.76,17.48-106.1,26.34c-19.04,4.78-38.01,9.85-57.02,14.75
		c-3.84,0.99-7.73,1.82-11.63,2.56c-0.58,0.11-1.96-0.79-1.92-1.05C672.53,489.13,673.1,487.83,673.66,486.2z"/>
	<path d="M491.43,612.94c3.26-1.4,5.61-2.4,8.25-3.53c-0.7-1.18-1.37-2.32-2.61-4.4c14.81-4.09,28.92-8.28,43.19-11.89
		c64.38-16.3,128.82-32.37,193.21-48.64c50.66-12.8,101.27-25.77,151.91-38.64c3.02-0.77,6.1-1.48,9.19-1.75
		c1.26-0.11,2.63,1.01,5.05,2.04c-3,1.32-4.7,2.07-6.39,2.82c0.08,0.23,0.16,0.46,0.24,0.7c0.67-0.17,1.35-0.49,2.02-0.48
		c0.86,0.02,2.13,0.05,2.46,0.57c0.36,0.55,0.09,1.85-0.35,2.53c-3.29,5.11-6.93,10-10.02,15.23
		c-7.18,12.17-14.09,24.49-21.15,36.73c-0.53,0.92-1.38,1.64-2.77,3.24c-0.23-4.86-9.09-4.89-3.76-11.29
		c-1.39-0.77-2.46-1.36-3.94-2.18c5.97-10.27,11.87-20.39,18.09-31.09c-1.7,0.13-2.8,0.07-3.83,0.32
		c-26.93,6.7-53.83,13.56-80.79,20.14c-26.44,6.45-52.99,12.46-79.43,18.94c-38.75,9.5-77.53,18.89-116.12,29
		c-29.27,7.67-58.29,16.33-87.38,24.69C501.32,617.47,496.97,615.86,491.43,612.94z M879.27,522.95c-0.4-0.24-0.8-0.47-1.2-0.71
		c-4.68,7.96-9.36,15.92-14.04,23.88c0.38,0.22,0.75,0.44,1.13,0.66C869.87,538.84,874.57,530.9,879.27,522.95z"/>
	<path d="M848.52,406.12c6.31,4.33,12.57,8.62,18.55,12.73c-1.7,3.43-3.13,6.33-4.93,9.95c-7.23-3.03-14.35-6.02-21.35-8.95
		c-4.91,3.95-9.99,7.92-14.95,12.04c-8.62,7.18-18.46,6.43-28.41,4.34c-19.27-4.05-25.78-17.67-28.23-34.86
		c-2.32-16.27,0.08-32.09,6.93-46.8c8.71-18.69,21.93-33.01,43.47-36.68c11.94-2.03,27.92,7.27,32.77,18.26
		c9.07,20.56,6.07,41.02-0.57,61.42C850.87,400.41,849.67,403.14,848.52,406.12z M834.76,398.34c5.1-19.26,7.06-37.67,0.47-56.1
		c-1.97-5.5-7.63-8.15-13.98-7.01c-8.98,1.62-17.14,5.31-21.59,13.6c-3.88,7.24-7.55,14.93-9.34,22.87
		c-2.98,13.22-3.87,26.86,2.72,39.49c1.71,3.27,4.84,6.68,8.15,8.07c7.43,3.13,20.81-1.39,26.46-8.05c-4.93-3.3-9.83-6.58-14.6-9.77
		c1.76-2.43,3.29-3.7,3.7-5.27c1.35-5.07,3.55-6.23,8.02-3.69C827.78,394.22,830.77,396,834.76,398.34z"/>
	<path d="M977.2,463.38c-0.58-1.12-1.17-2.25-1.7-3.27c0.37-0.49,0.58-0.97,0.76-0.97c3.43,0.12,6.9,0.73,10.27,0.36
		c3.69-0.4,4.22,2.3,4.93,4.41c2.6,7.72,4.83,15.56,7.29,23.33c6.99,22.05,14.01,44.1,21.09,66.12c0.81,2.52,1.56,4.67-2.24,4.81
		c0,2.07,0,3.9,0,7.33c-2.33-2.51-3.67-3.95-5.02-5.39c-7.28,3.39-7.76,3.16-10.23-5.05c-1.77-5.87-3.53-11.73-5.48-18.2
		c-11.76,3.4-23.21,6.66-34.6,10.11c-0.95,0.29-1.74,1.85-2.15,2.99c-2.71,7.5-5.16,15.11-7.99,22.57
		c-1.39,3.65-2.48,7.73-7.95,7.79c-2.07,0.02-4.11,1.89-6.06,2.86c-4.14-4.39-3.53-8.46-1.64-13.59
		c11.33-30.76,22.15-61.7,33.25-92.54c1.74-4.85,4.09-9.48,6.15-14.21C976.31,463.02,976.75,463.2,977.2,463.38z M982.76,486.29
		c-0.34,0-0.69-0.01-1.03-0.01c-4.69,13.43-9.38,26.86-14.45,41.34c9.24-2.72,17.1-5.03,25.13-7.39
		C989.05,508.42,985.9,497.36,982.76,486.29z"/>
	<path d="M871.63,410.7c0-1.51,0.04-3.02-0.01-4.53c-0.07-2.15-0.36-4.31-0.29-6.45c1.01-29.43,2.07-58.85,3.09-88.28
		c0.1-2.77,0.01-5.56,0.01-8.33c0.47-0.22,0.94-0.43,1.41-0.65c0.99,1.66,1.99,3.31,3.01,5.03c1.26-0.58,2.72-1.76,4.2-1.79
		c1.51-0.03,4.11,0.78,4.38,1.74c1.04,3.72,1.9,7.66,1.81,11.5c-0.24,10.62-0.98,21.23-1.55,32.29c4.71-3.21,8.78-6.5,13.29-8.97
		c13.67-7.47,27.69-0.68,30.73,14.63c3.37,17.02-6.4,40.06-21.51,48.96c-6.8,4-14.35,6.76-21.68,9.82
		c-6.94,2.9-12.31-1.45-18.03-3.95C870.89,411.39,871.26,411.04,871.63,410.7z M886.66,400.05c1.71-0.17,3.52-0.17,5.25-0.56
		c12.95-2.94,25.69-19.85,25.38-34.6c-0.07-3.56-1.75-8.54-4.37-10.16c-2.17-1.34-7.38,0.43-10.25,2.32
		C889.33,365.86,882.87,383.6,886.66,400.05z"/>
	<path d="M490.85,706.26c2.98,2.17,5.96,4.34,8.95,6.51c0.26-0.24,0.52-0.48,0.78-0.73c-1.09-1.73-1.83-3.91-3.34-5.11
		c-3.25-2.59-1.2-5.6-1.06-8.41c0.01-0.17,3.16-0.85,4.12-0.21c7.02,4.7,14.45,7.74,23.02,6.05c3.72-0.74,7.44-1.9,10.87-3.51
		c5.37-2.52,8.99-9.5,7.27-15.06c-0.77-2.48-3.66-5.16-6.18-6.06c-4.48-1.59-9.4-2.09-14.18-2.7c-17.3-2.19-25.53-17.14-17.47-32.54
		c6.55-12.51,17.3-19.21,31.37-19.81c7-0.3,13.51,1.98,18.27,7.58c1.14,1.34,1.72,3.15,2.56,4.75c-0.38,0.27-0.76,0.54-1.15,0.81
		c-1.99-1.83-3.97-3.66-5.96-5.49c-0.23,0.16-0.45,0.31-0.68,0.47c1.03,1.76,2.11,3.5,3.08,5.3c2.2,4.05,1.38,7.13-2.65,8.66
		c-0.88,0.33-2.79-0.68-3.54-1.62c-4.13-5.18-9.29-7.11-15.48-4.73c-6.56,2.53-10.4,7.49-11.29,14.6c-0.43,3.47,0.8,6.04,4.21,6.89
		c4.17,1.04,8.43,1.83,12.7,2.38c15.79,2.05,23.62,10.19,23.26,25.21c-0.24,10-5.19,17.72-13.45,23.26
		c-2.34,1.57-4.97,2.71-7.33,4.26c-16.21,10.63-33.79,4.49-44.49-5.32c-1.36-1.25-2.2-3.06-3.28-4.61
		C490.13,706.8,490.49,706.53,490.85,706.26z"/>
	<path d="M718.5,655.73c-4.16,3.5-7.92,6.99-12,10.04c-10.39,7.78-26.94-0.62-29.22-12.78c-2.96-15.8,5.38-37.9,18.58-46.94
		c6.32-4.33,13.2-6.15,21.16-3.52c0.74-11.16,1.46-22.03,2.16-32.56c2.53-0.74,4.38-1.3,6.24-1.82c3.81-1.06,7,2.17,6.76,6.89
		c-0.81,15.96-1.88,31.92-2.4,47.89c-0.33,10.29,0.06,20.61,0.32,30.92c0.03,1.3,1.24,2.57,2.11,4.24c-1.55,1.81-3.46,4.03-5.32,6.2
		C721.28,663.22,721.28,663.22,718.5,655.73z M716.41,621.8c0.28-7.79-1.59-9.2-8.82-6.25c-2.26,0.92-4.68,2.14-6.26,3.92
		c-8.12,9.13-12.08,19.79-10.18,32.08c1.04,6.72,4.49,7.92,9.48,3.39C710.39,646.08,716.39,635.34,716.41,621.8z"/>
	<path d="M825.08,598.31c0.21,16.54-5.37,30.28-19.67,39.55c-17.03,11.04-32.21,5.46-35.52-15.25c-2.8-17.51,3.52-33.16,16.34-45.63
		c7.48-7.27,16.6-7.95,25.98-4.38c9.14,3.48,12.1,11.24,12.85,20.22C825.21,594.64,825.08,596.48,825.08,598.31z M810.51,597.88
		c-0.13-1.36,0.07-3.82-0.7-5.94c-1.01-2.78-2.31-6.9-4.34-7.48c-2.53-0.73-6.8,0.69-8.79,2.7c-9.49,9.59-14.01,21.38-12.04,34.89
		c0.46,3.14,3.14,7.31,5.83,8.36c2.21,0.86,6.57-1.52,8.9-3.65C807.51,619.37,810.14,609.51,810.51,597.88z"/>
	<path d="M621,623.06c3.03-0.72,5.95-1.91,8.89-1.97c2.97-0.05,4.93,1.28,4.61,5.3c-1.01,12.42-1.69,24.88-2.02,37.33
		c-0.08,2.98,1.7,6.02,2.92,9.95c7.08-5.9,11.07-12.24,12.91-19.51c3-11.9,5.21-24.01,7.71-36.03c0.48-2.31,6.28-6.78,8.91-6.36
		c4.08,0.64,3.84,3.78,3.73,6.94c-0.52,13.8-1.2,27.61-1.21,41.42c-0.01,5.17,1.63,10.34,2.62,16.07c-5.54,5.22-8.72,3.75-13.5-7.58
		c-2.28,3.19-4.3,6.38-6.68,9.27c-4.09,4.97-9.13,8.74-15.92,6.79c-6.47-1.85-12.1-5.12-14.03-12.53
		c-2.96-11.37-2.04-22.81-1.03-34.26C619.33,633.12,620.23,628.4,621,623.06z"/>
	<path d="M983.42,335.91c-3.85,1.01-7,1.95-10.2,2.62c-1.09,0.23-3.21,0.08-3.36-0.39c-1.02-3.13-1.83-6.37-2.23-9.63
		c-0.1-0.85,1.32-2.2,2.34-2.81c1.4-0.83,3.08-1.22,4.66-1.71c10.1-3.12,10.08-3.12,10.72-13.86c0.28-4.6,0.7-9.19,2.14-14.27
		c0.93,1.27,1.87,2.55,2.7,3.68c2.08-0.62,4.28-1.59,6.54-1.79c0.84-0.07,2.52,1.6,2.64,2.62c0.41,3.59,0.32,7.24,0.4,10.86
		c0.04,1.77,0.01,3.53,0.01,5.73c6.16-1.48,11.91-2.86,17.34-4.17c0.66,0.69,1.02,0.9,1.09,1.17c2.48,10.04,2.48,10.05-7.11,13.42
		c-1.56,0.55-3.19,0.93-4.77,1.43c-8.57,2.67-8.75,2.67-8.97,11.48c-0.24,9.46-0.39,18.94-0.01,28.38c0.2,5.13,2.2,5.8,6.33,2.78
		c2.93-2.15,5.68-4.57,7.99-6.45c3.06-0.34,5.64-0.64,8.74-0.99c-1.11,2.35-2.01,4.23-3.09,6.52c1.47,0,2.62,0,3.86,0
		c-2.95,12.22-21.41,20.57-31.07,13.63c-3.47-2.49-6.34-7.69-6.89-11.98c-1.07-8.33-0.35-16.9-0.28-25.37
		C982.95,343.38,983.22,339.95,983.42,335.91z"/>
	<path d="M575.44,649.7c-2.09,0.48-5.05,0.97-7.88,1.85c-3.77,1.17-4.72-1.06-5.22-3.95c-0.29-1.65-0.42-3.33-0.76-6.07
		c3.35-1.3,7.52-3.22,11.87-4.5c3.5-1.03,4.55-3.05,4.76-6.45c0.39-6.53,1.19-13.04,1.7-18.21c3.71-0.63,6.39-1.09,9.07-1.55
		c3.15-0.54,4.6,0.93,4.62,3.98c0.03,4.79,0.01,9.59,0.01,14.66c4.54-1.16,8.97-2.32,13.41-3.41c2.99-0.73,4.79-0.46,4.21,3.6
		c-0.31,2.17,0.97,4.56,1.71,7.55c-5.42,1.84-10.95,4.02-16.65,5.54c-3.53,0.94-4.74,2.62-4.87,6.19
		c-0.33,9.63-1.14,19.25-1.53,28.88c-0.1,2.55-0.19,6.03,3.41,6.18c2.05,0.08,5.17-1.11,6.07-2.71c2.41-4.28,6.08-4.16,9.47-4.32
		c1.24,1.55,2.41,2.7,3.19,4.08c0.54,0.97,1.12,2.59,0.68,3.33c-3.82,6.53-9.13,11.61-16.57,13.49
		c-11.62,2.93-20.69-4.68-20.69-16.87C575.44,670.7,575.44,660.42,575.44,649.7z"/>
	<path d="M1035.7,444c3.83,4.96,7,1.07,9.65-0.19c3.51-1.68,4.45-0.15,4.72,2.39c0.42,3.94,0.37,7.95,0.28,11.93
		c-0.56,24.81-1.21,49.62-1.76,74.43c-0.15,6.61-0.02,13.22-0.02,20.55c-3.88-1.84-6.2-1.02-6.61,2.37
		c-2.09-0.45-4.47-0.26-5.49-1.35c-1.72-1.85-3.59-4.49-3.63-6.82c-0.19-12.65,0.08-25.32,0.36-37.97
		c0.45-20.81,1.02-41.61,1.57-62.42C1034.79,446.31,1035.15,445.71,1035.7,444z"/>
	<path d="M953.64,397.58c-2.03,0-4.06-0.03-6.08,0.01c-3.46,0.06-5.18-1.52-5.04-5.07c0.35-8.8,0.57-17.6,0.99-26.39
		c0.52-10.78,1.19-21.56,1.82-32.33c0.14-2.48-0.31-5.8,3.98-3.12c0.38,0.24,1.16,0.02,1.67-0.18c4.38-1.7,7.2,0.18,7.13,5.11
		c-0.23,15.77-0.45,31.55-0.97,47.31c-0.17,5.22-1.24,10.4-1.91,15.6C954.7,398.2,954.17,397.89,953.64,397.58z"/>
	<path d="M746.37,593.18c2.94-0.7,5.54-1.38,8.17-1.95c4.26-0.92,4.74,2.13,4.75,5c0.03,6.99-0.19,13.97-0.4,20.96
		c-0.29,9.64-0.56,19.29-1.06,28.92c-0.17,3.35-1,6.67-1.43,9.43c-2.17,0-3.88,0-6.33,0c-0.5-0.29-2.16-0.88-3.22-2.01
		c-1.08-1.15-2.27-2.86-2.24-4.31c0.34-16.63,0.89-33.25,1.41-49.88C746.1,597.03,746.29,594.73,746.37,593.18z"/>
	<path d="M951.66,319.29c-4.21,0.02-8.02-3.67-8.13-7.87c-0.13-5.01,4.75-10.25,9.57-10.25c4.19,0,8.09,3.72,8.18,7.81
		C961.39,313.92,956.4,319.27,951.66,319.29z"/>
	<path d="M762.55,571.14c0.03,4.68-5.3,10.28-9.78,10.27c-4-0.01-7.81-3.58-7.96-7.47c-0.2-5.02,4.85-10.09,10.17-10.21
		C759.25,563.63,762.52,566.84,762.55,571.14z"/>
</g>
</svg>
