<?xml version="1.0" encoding="utf-8"?>
<!-- Generator: Adobe Illustrator 27.2.0, SVG Export Plug-In . SVG Version: 6.00 Build 0)  -->
<svg version="1.1" xmlns="http://www.w3.org/2000/svg" xmlns:xlink="http://www.w3.org/1999/xlink" x="0px" y="0px"
	 viewBox="0 0 1920 1080" style="enable-background:new 0 0 1920 1080;" xml:space="preserve">
<style type="text/css">
	.st0{display:none;}
	.st1{display:inline;}
	.st2{fill:#FFFFFF;}
</style>
<g id="Слой_1" class="st0">
	<g class="st1">
		<path class="st2" d="M67,868c0-229.52,0-458.7,0-688c501.34,0,1002.67,0,1504,0c0,229.32,0,458.66,0,688
			C1069.72,868,568.44,868,67,868z M718.85,370.06c-2.49,3.89-4.13,6.36-5.68,8.88c-28.72,46.8-57.53,93.54-85.96,140.52
			c-2.39,3.94-7.98,5.65-7.66,11.4c0.09,1.64-0.55,3.31-0.85,4.97c1.88-0.05,3.87,0.29,5.62-0.19
			c19.56-5.41,38.97-11.35,58.63-16.37c51.59-13.16,103.28-25.96,154.94-38.83c34.03-8.48,68.09-16.81,102.14-25.23
			c21.95-5.43,43.91-10.81,65.82-16.38c12.47-3.17,26.23-3.26,35.38-14.72c-3.21-3.2-7.69-4.46-12.31-3.33
			c-47.72,11.59-95.4,23.37-143.09,35.07c-74.7,18.33-149.4,36.64-224.1,54.94c-5.35,1.31-10.72,2.49-17.41,4.04
			c25.29-40.81,49.77-80.33,74.69-120.54c2.24,3.24,3.74,5.42,5.26,7.59c11.13,15.99,22.31,31.96,33.37,48
			c2.5,3.63,4.79,5.93,6.92,2.31c4.52-0.59,7.66-0.99,11.6-1.5C756.86,423.53,738.15,397.2,718.85,370.06z M950.96,471.58
			c-27.37,7.3-54.63,14.85-82.04,21.8c-40.81,10.35-81.74,20.21-122.59,30.4c-52.31,13.05-104.7,25.86-156.83,39.6
			c-13.82,3.64-28.98,3.97-40.9,13.54c-1,0.8-1.72,1.95-2.56,2.93c1.18,0.14,2.36,0.31,3.55,0.4c0.79,0.06,1.58,0.01,2.39,0.01
			c0.3,1.71,0.56,3.22,1.01,5.83c123.68-36.08,249.46-61.49,374.86-94.06c-20.7,35.54-40.66,69.8-60.98,104.69
			c-10.46-12.68-20.53-24.89-31.19-37.81c-2.59,3.52-4.34,5.9-6.11,8.31c-0.86-0.58-2.28-1.54-3.7-2.5
			c-0.46,0.35-0.93,0.7-1.39,1.05c1.26,2.02,2.28,4.25,3.83,6.01c13.12,14.98,27.62,28.8,37.97,46.08c0.31,0.51,2.7,0.57,3.19,0.02
			c1.8-2.04,3.41-4.31,4.72-6.7c5.68-10.32,10.86-20.94,16.9-31.05c18.61-31.14,37.6-62.06,56.26-93.17
			C949.98,482.55,954.65,478.34,950.96,471.58z M676.29,492.24c-0.56,1.63-1.13,2.93-1.36,4.28c-0.04,0.25,1.33,1.16,1.92,1.05
			c3.9-0.74,7.79-1.57,11.63-2.56c19.01-4.89,37.98-9.97,57.02-14.75c35.35-8.86,70.75-17.52,106.1-26.34
			c45.39-11.33,90.73-22.85,136.14-34.07c28.75-7.11,57.6-13.82,86.39-20.74c3.44-0.83,6.83-1.83,10.24-2.75
			c0.02-0.39,0.03-0.78,0.05-1.17c-1.03-0.4-2.07-0.8-3.72-1.44c3.91-1.6,6.2-2.54,8.5-3.48c-0.13-0.48-0.26-0.95-0.39-1.43
			c-2.04,0.25-4.07,0.49-6.11,0.74c-0.02-0.17-0.04-0.34-0.06-0.51c2.36-0.86,4.72-1.71,7.07-2.57c-0.13-0.54-0.25-1.08-0.38-1.61
			c-3.49,0-7.16-0.71-10.45,0.11c-21.14,5.27-42.16,11.04-63.3,16.34c-60.69,15.21-121.39,30.37-182.13,45.38
			c-43.31,10.7-86.69,21.13-130.05,31.67c-1.63,0.4-3.3,0.65-6.43,1.25c9.08-14.44,17.27-27.55,25.59-40.58
			c1.28-2.01,3.22-3.6,5.38-5.96c-2.19-3.64-4.87-8.11-7.92-13.18c-1.61,2.62-2.54,4.15-3.49,5.66
			c-9.64,15.36-19.19,30.77-28.96,46.04c-4.11,6.43-6.54,14.35-14.59,17.58c-0.38,0.15-0.44,1.11-0.77,2.01
			C673.74,491.6,674.97,491.91,676.29,492.24z M494.06,618.98c5.54,2.91,9.88,4.53,15.06,3.04c29.09-8.36,58.11-17.02,87.38-24.69
			c38.59-10.11,77.37-19.5,116.12-29c26.44-6.48,52.99-12.49,79.43-18.94c26.96-6.58,53.86-13.43,80.79-20.14
			c1.03-0.26,2.14-0.19,3.83-0.32c-6.22,10.7-12.12,20.83-18.09,31.09c1.49,0.82,2.56,1.41,3.94,2.18
			c-5.33,6.4,3.53,6.43,3.76,11.29c1.38-1.6,2.24-2.32,2.77-3.24c7.06-12.24,13.97-24.56,21.15-36.73
			c3.08-5.23,6.72-10.12,10.02-15.23c0.44-0.68,0.71-1.97,0.35-2.53c-0.33-0.52-1.6-0.55-2.46-0.57c-0.67-0.02-1.34,0.3-2.02,0.48
			c-0.08-0.23-0.16-0.46-0.24-0.7c1.7-0.75,3.39-1.5,6.39-2.82c-2.42-1.03-3.79-2.15-5.05-2.04c-3.09,0.27-6.17,0.98-9.19,1.75
			c-50.64,12.86-101.25,25.84-151.91,38.64c-64.39,16.27-128.83,32.34-193.21,48.64c-14.26,3.61-28.38,7.8-43.19,11.89
			c1.24,2.08,1.91,3.23,2.61,4.4C499.67,616.58,497.33,617.58,494.06,618.98z M851.15,412.16c1.15-2.98,2.35-5.71,3.27-8.54
			c6.64-20.41,9.64-40.86,0.57-61.42c-4.85-11-20.83-20.3-32.77-18.26c-21.53,3.67-34.76,17.99-43.47,36.68
			c-6.85,14.7-9.26,30.53-6.93,46.8c2.45,17.18,8.96,30.8,28.23,34.86c9.95,2.09,19.79,2.85,28.41-4.34
			c4.95-4.13,10.04-8.09,14.95-12.04c7,2.94,14.12,5.92,21.35,8.95c1.8-3.63,3.23-6.53,4.93-9.95
			C863.71,420.78,857.46,416.48,851.15,412.16z M979.83,469.42c-0.45-0.18-0.89-0.37-1.34-0.55c-2.07,4.73-4.41,9.36-6.15,14.21
			c-11.1,30.84-21.92,61.79-33.25,92.54c-1.89,5.14-2.5,9.2,1.64,13.59c1.95-0.97,4-2.84,6.06-2.86c5.48-0.05,6.57-4.14,7.95-7.79
			c2.83-7.46,5.28-15.06,7.99-22.57c0.41-1.14,1.21-2.7,2.15-2.99c11.39-3.46,22.85-6.71,34.6-10.11c1.95,6.47,3.71,12.33,5.48,18.2
			c2.47,8.21,2.95,8.44,10.23,5.05c1.34,1.44,2.68,2.88,5.01,5.39c0-3.43,0-5.26,0-7.33c3.8-0.14,3.05-2.3,2.24-4.81
			c-7.08-22.02-14.09-44.07-21.09-66.12c-2.46-7.77-4.69-15.61-7.29-23.33c-0.71-2.1-1.23-4.8-4.93-4.41
			c-3.37,0.36-6.84-0.24-10.27-0.36c-0.19-0.01-0.39,0.48-0.76,0.97C978.66,467.17,979.24,468.3,979.83,469.42z M874.26,416.74
			c-0.37,0.34-0.74,0.68-1.12,1.02c5.73,2.49,11.1,6.85,18.03,3.95c7.32-3.06,14.88-5.82,21.68-9.82
			c15.12-8.9,24.89-31.94,21.51-48.96c-3.03-15.31-17.06-22.1-30.73-14.63c-4.52,2.47-8.58,5.76-13.29,8.97
			c0.57-11.06,1.31-21.67,1.55-32.29c0.09-3.84-0.77-7.78-1.81-11.5c-0.27-0.96-2.87-1.77-4.38-1.74c-1.48,0.03-2.94,1.21-4.2,1.79
			c-1.03-1.71-2.02-3.37-3.01-5.03c-0.47,0.22-0.94,0.43-1.41,0.65c0,2.78,0.08,5.56-0.01,8.33c-1.02,29.43-2.09,58.85-3.09,88.28
			c-0.07,2.15,0.22,4.3,0.29,6.45C874.3,413.72,874.26,415.23,874.26,416.74z M493.48,712.29c-0.36,0.27-0.72,0.55-1.07,0.82
			c1.08,1.55,1.92,3.36,3.28,4.61c10.71,9.82,28.28,15.95,44.49,5.32c2.36-1.55,4.99-2.69,7.33-4.26
			c8.26-5.54,13.2-13.26,13.45-23.26c0.36-15.01-7.47-23.16-23.26-25.21c-4.27-0.55-8.53-1.34-12.7-2.38
			c-3.41-0.85-4.65-3.42-4.21-6.89c0.89-7.11,4.73-12.07,11.29-14.6c6.19-2.38,11.34-0.45,15.48,4.73c0.75,0.94,2.66,1.95,3.54,1.62
			c4.03-1.53,4.85-4.61,2.65-8.66c-0.97-1.79-2.05-3.53-3.08-5.3c0.23-0.16,0.45-0.31,0.68-0.47c1.99,1.83,3.97,3.66,5.96,5.49
			c0.38-0.27,0.76-0.54,1.15-0.81c-0.84-1.6-1.42-3.41-2.56-4.75c-4.76-5.6-11.27-7.88-18.27-7.58c-14.07,0.6-24.82,7.3-31.37,19.81
			c-8.06,15.4,0.17,30.34,17.47,32.54c4.78,0.61,9.7,1.11,14.18,2.7c2.53,0.9,5.42,3.58,6.18,6.06c1.72,5.57-1.9,12.54-7.27,15.06
			c-3.42,1.61-7.15,2.77-10.87,3.51c-8.57,1.7-16-1.34-23.02-6.05c-0.96-0.64-4.11,0.04-4.12,0.21c-0.14,2.81-2.19,5.82,1.06,8.41
			c1.51,1.2,2.25,3.38,3.34,5.11c-0.26,0.24-0.52,0.48-0.78,0.73C499.44,716.64,496.46,714.46,493.48,712.29z M721.13,661.77
			c2.78,7.49,2.78,7.49,8.38,8.57c1.86-2.17,3.77-4.39,5.32-6.2c-0.86-1.67-2.07-2.94-2.11-4.24c-0.26-10.3-0.65-20.62-0.32-30.92
			c0.52-15.97,1.59-31.93,2.4-47.89c0.24-4.73-2.95-7.95-6.76-6.89c-1.86,0.52-3.71,1.08-6.24,1.82
			c-0.7,10.53-1.42,21.41-2.16,32.56c-7.96-2.63-14.84-0.81-21.16,3.52c-13.2,9.04-21.55,31.13-18.58,46.94
			c2.28,12.16,18.83,20.56,29.22,12.78C713.21,668.76,716.97,665.27,721.13,661.77z M827.72,604.35c0-1.83,0.13-3.67-0.02-5.49
			c-0.75-8.97-3.71-16.74-12.85-20.22c-9.39-3.57-18.51-2.9-25.98,4.38c-12.83,12.47-19.15,28.11-16.34,45.63
			c3.31,20.71,18.49,26.29,35.52,15.25C822.34,634.63,827.93,620.89,827.72,604.35z M623.63,629.1c-0.77,5.33-1.67,10.06-2.1,14.83
			c-1.02,11.45-1.94,22.89,1.03,34.26c1.93,7.42,7.56,10.68,14.03,12.53c6.79,1.94,11.83-1.82,15.92-6.79
			c2.38-2.89,4.4-6.08,6.68-9.28c4.78,11.33,7.96,12.81,13.5,7.58c-0.99-5.73-2.63-10.91-2.62-16.07
			c0.02-13.81,0.7-27.61,1.21-41.42c0.12-3.16,0.35-6.3-3.73-6.94c-2.63-0.41-8.43,4.05-8.91,6.36c-2.5,12.03-4.71,24.13-7.71,36.03
			c-1.83,7.27-5.83,13.61-12.91,19.51c-1.21-3.94-3-6.97-2.92-9.95c0.33-12.46,1.01-24.91,2.02-37.33c0.33-4.02-1.64-5.35-4.61-5.3
			C629.58,627.19,626.66,628.38,623.63,629.1z M986.05,341.94c-0.19,4.04-0.47,7.47-0.5,10.91c-0.07,8.47-0.79,17.04,0.28,25.37
			c0.55,4.29,3.42,9.49,6.89,11.98c9.67,6.94,28.12-1.41,31.07-13.63c-1.25,0-2.39,0-3.86,0c1.08-2.29,1.97-4.17,3.09-6.52
			c-3.09,0.35-5.68,0.64-8.74,0.99c-2.31,1.88-5.05,4.3-7.99,6.45c-4.12,3.03-6.12,2.35-6.33-2.78c-0.38-9.45-0.23-18.92,0.01-28.38
			c0.23-8.81,0.41-8.8,8.97-11.48c1.58-0.49,3.21-0.88,4.77-1.43c9.6-3.37,9.6-3.38,7.11-13.42c-0.07-0.28-0.43-0.48-1.09-1.17
			c-5.43,1.3-11.17,2.68-17.34,4.17c0-2.2,0.03-3.96-0.01-5.73c-0.07-3.63,0.01-7.27-0.4-10.86c-0.12-1.01-1.8-2.69-2.64-2.62
			c-2.26,0.19-4.46,1.17-6.54,1.79c-0.83-1.14-1.77-2.41-2.7-3.68c-1.44,5.08-1.86,9.67-2.14,14.27
			c-0.65,10.74-0.62,10.74-10.72,13.86c-1.59,0.49-3.26,0.88-4.66,1.71c-1.03,0.61-2.45,1.95-2.34,2.81c0.4,3.26,1.22,6.5,2.23,9.63
			c0.15,0.46,2.26,0.62,3.36,0.39C979.05,343.89,982.2,342.95,986.05,341.94z M578.07,655.74c0,10.72,0,21,0,31.28
			c0,12.19,9.07,19.8,20.69,16.87c7.44-1.88,12.75-6.96,16.57-13.49c0.44-0.74-0.14-2.36-0.68-3.33c-0.77-1.38-1.95-2.54-3.19-4.08
			c-3.38,0.16-7.05,0.04-9.47,4.32c-0.9,1.6-4.02,2.8-6.07,2.71c-3.61-0.15-3.52-3.63-3.41-6.18c0.4-9.63,1.2-19.25,1.53-28.88
			c0.12-3.57,1.34-5.25,4.87-6.19c5.7-1.52,11.23-3.7,16.65-5.54c-0.74-2.99-2.01-5.38-1.71-7.55c0.57-4.06-1.22-4.33-4.21-3.6
			c-4.45,1.09-8.88,2.25-13.41,3.41c0-5.07,0.02-9.87-0.01-14.66c-0.02-3.05-1.47-4.52-4.62-3.98c-2.68,0.46-5.37,0.92-9.07,1.55
			c-0.5,5.17-1.3,11.68-1.7,18.21c-0.21,3.4-1.26,5.42-4.76,6.45c-4.35,1.28-8.52,3.2-11.87,4.5c0.34,2.74,0.47,4.42,0.76,6.07
			c0.5,2.89,1.45,5.12,5.22,3.95C573.02,656.71,575.98,656.21,578.07,655.74z M1038.33,450.04c-0.55,1.71-0.91,2.31-0.92,2.92
			c-0.55,20.8-1.12,41.61-1.57,62.42c-0.27,12.66-0.54,25.32-0.36,37.97c0.03,2.33,1.91,4.97,3.63,6.82
			c1.01,1.09,3.4,0.89,5.49,1.35c0.42-3.39,2.73-4.21,6.61-2.37c0-7.33-0.12-13.94,0.02-20.55c0.55-24.81,1.2-49.62,1.76-74.43
			c0.09-3.98,0.14-7.99-0.28-11.93c-0.27-2.53-1.22-4.07-4.72-2.39C1045.34,451.11,1042.17,455,1038.33,450.04z M956.27,403.62
			c0.53,0.31,1.06,0.62,1.59,0.93c0.66-5.2,1.73-10.39,1.91-15.6c0.52-15.76,0.74-31.54,0.97-47.31c0.07-4.93-2.75-6.81-7.13-5.11
			c-0.52,0.2-1.29,0.41-1.67,0.18c-4.29-2.68-3.84,0.64-3.98,3.12c-0.63,10.78-1.29,21.55-1.82,32.33
			c-0.42,8.79-0.64,17.59-0.99,26.39c-0.14,3.55,1.58,5.13,5.04,5.07C952.21,403.59,954.24,403.62,956.27,403.62z M749.01,599.22
			c-0.09,1.54-0.27,3.85-0.35,6.16c-0.52,16.62-1.07,33.25-1.41,49.88c-0.03,1.44,1.16,3.16,2.24,4.31
			c1.07,1.13,2.72,1.72,3.22,2.01c2.46,0,4.17,0,6.33,0c0.43-2.75,1.26-6.07,1.43-9.43c0.5-9.63,0.77-19.28,1.06-28.92
			c0.21-6.98,0.43-13.97,0.4-20.96c-0.01-2.87-0.5-5.92-4.75-5C754.55,597.84,751.94,598.52,749.01,599.22z M954.29,325.33
			c4.74-0.02,9.72-5.37,9.62-10.31c-0.09-4.09-3.99-7.82-8.18-7.81c-4.82,0.01-9.7,5.24-9.57,10.25
			C946.28,321.66,950.08,325.35,954.29,325.33z M765.18,577.18c-0.03-4.31-3.3-7.51-7.57-7.41c-5.33,0.13-10.37,5.19-10.17,10.21
			c0.15,3.89,3.96,7.46,7.96,7.47C759.88,587.46,765.21,581.86,765.18,577.18z"/>
		<path d="M718.85,370.06c19.29,27.14,38.01,53.48,57.3,80.62c-3.94,0.51-7.08,0.92-11.6,1.5c-2.13,3.62-4.42,1.32-6.92-2.31
			c-11.06-16.04-22.24-32.01-33.37-48c-1.51-2.17-3.01-4.35-5.26-7.59c-24.92,40.21-49.4,79.72-74.69,120.54
			c6.69-1.55,12.07-2.73,17.41-4.04c74.7-18.3,149.4-36.61,224.1-54.94c47.69-11.7,95.37-23.48,143.09-35.07
			c4.63-1.12,9.11,0.13,12.31,3.33c-9.15,11.46-22.91,11.55-35.38,14.72c-21.91,5.57-43.87,10.95-65.82,16.38
			c-34.04,8.42-68.11,16.75-102.14,25.23c-51.67,12.87-103.35,25.67-154.94,38.83c-19.66,5.01-39.07,10.96-58.63,16.37
			c-1.76,0.49-3.74,0.15-5.62,0.19c0.3-1.66,0.94-3.33,0.85-4.97c-0.31-5.74,5.27-7.45,7.66-11.4
			c28.43-46.97,57.24-93.72,85.96-140.52C714.73,376.42,716.36,373.95,718.85,370.06z"/>
		<path d="M950.96,471.58c3.69,6.76-0.98,10.96-3.63,15.38c-18.66,31.11-37.65,62.03-56.26,93.17
			c-6.04,10.11-11.22,20.72-16.9,31.05c-1.31,2.39-2.92,4.66-4.72,6.7c-0.49,0.55-2.89,0.49-3.19-0.02
			c-10.35-17.28-24.85-31.1-37.97-46.08c-1.55-1.77-2.57-4-3.83-6.01c0.46-0.35,0.93-0.7,1.39-1.05c1.42,0.96,2.84,1.92,3.7,2.5
			c1.77-2.41,3.52-4.79,6.11-8.31c10.66,12.93,20.73,25.14,31.19,37.81c20.32-34.89,40.28-69.15,60.98-104.69
			c-125.4,32.56-251.17,57.98-374.86,94.06c-0.45-2.61-0.72-4.12-1.01-5.83c-0.81,0-1.61,0.05-2.39-0.01
			c-1.19-0.09-2.37-0.26-3.55-0.4c0.85-0.99,1.57-2.13,2.56-2.93c11.93-9.56,27.09-9.89,40.9-13.54
			c52.13-13.74,104.52-26.55,156.83-39.6c40.85-10.19,81.78-20.05,122.59-30.4C896.33,486.43,923.59,478.88,950.96,471.58z"/>
		<path d="M676.29,492.24c-1.32-0.33-2.54-0.64-4.07-1.03c0.33-0.9,0.39-1.86,0.77-2.01c8.05-3.23,10.48-11.15,14.59-17.58
			c9.77-15.27,19.32-30.68,28.96-46.04c0.95-1.51,1.88-3.04,3.49-5.66c3.04,5.06,5.73,9.53,7.92,13.18
			c-2.16,2.36-4.09,3.95-5.38,5.96c-8.32,13.02-16.51,26.14-25.59,40.58c3.12-0.6,4.79-0.85,6.43-1.25
			c43.35-10.54,86.73-20.97,130.05-31.67c60.74-15.01,121.44-30.16,182.13-45.38c21.14-5.3,42.16-11.07,63.3-16.34
			c3.29-0.82,6.96-0.11,10.45-0.11c0.13,0.54,0.25,1.08,0.38,1.61c-2.36,0.86-4.72,1.71-7.07,2.57c0.02,0.17,0.04,0.34,0.06,0.51
			c2.04-0.25,4.07-0.49,6.11-0.74c0.13,0.48,0.26,0.95,0.39,1.43c-2.29,0.94-4.59,1.88-8.5,3.48c1.65,0.64,2.68,1.04,3.72,1.44
			c-0.02,0.39-0.03,0.78-0.05,1.17c-3.41,0.92-6.81,1.93-10.24,2.75c-28.8,6.92-57.64,13.63-86.39,20.74
			c-45.41,11.23-90.75,22.74-136.14,34.07c-35.36,8.82-70.76,17.48-106.1,26.34c-19.04,4.78-38.01,9.85-57.02,14.75
			c-3.84,0.99-7.73,1.82-11.63,2.56c-0.58,0.11-1.96-0.79-1.92-1.05C675.16,495.17,675.73,493.87,676.29,492.24z"/>
		<path d="M494.06,618.98c3.26-1.4,5.61-2.4,8.25-3.53c-0.7-1.18-1.37-2.32-2.61-4.4c14.81-4.09,28.92-8.28,43.19-11.89
			c64.38-16.3,128.82-32.37,193.21-48.64c50.66-12.8,101.27-25.77,151.91-38.64c3.02-0.77,6.1-1.48,9.19-1.75
			c1.26-0.11,2.63,1.01,5.05,2.04c-3,1.32-4.7,2.07-6.39,2.82c0.08,0.23,0.16,0.46,0.24,0.7c0.67-0.17,1.35-0.49,2.02-0.48
			c0.86,0.02,2.13,0.05,2.46,0.57c0.36,0.55,0.09,1.85-0.35,2.53c-3.29,5.11-6.93,10-10.02,15.23
			c-7.18,12.17-14.09,24.49-21.15,36.73c-0.53,0.92-1.38,1.64-2.77,3.24c-0.23-4.86-9.09-4.89-3.76-11.29
			c-1.39-0.77-2.46-1.36-3.94-2.18c5.97-10.27,11.87-20.39,18.09-31.09c-1.7,0.13-2.8,0.07-3.83,0.32
			c-26.93,6.7-53.83,13.56-80.79,20.14c-26.44,6.45-52.99,12.46-79.43,18.94c-38.75,9.5-77.53,18.89-116.12,29
			c-29.27,7.67-58.29,16.33-87.38,24.69C503.95,623.51,499.6,621.9,494.06,618.98z M881.91,528.99c-0.4-0.24-0.8-0.47-1.2-0.71
			c-4.68,7.96-9.36,15.92-14.04,23.88c0.38,0.22,0.75,0.44,1.13,0.66C872.5,544.88,877.2,536.93,881.91,528.99z"/>
		<path d="M851.15,412.16c6.31,4.33,12.57,8.62,18.55,12.73c-1.7,3.43-3.13,6.33-4.93,9.95c-7.23-3.03-14.35-6.02-21.35-8.95
			c-4.91,3.95-9.99,7.92-14.95,12.04c-8.62,7.18-18.46,6.43-28.41,4.34c-19.27-4.05-25.78-17.67-28.23-34.86
			c-2.32-16.27,0.08-32.09,6.93-46.8c8.71-18.69,21.93-33.01,43.47-36.68c11.94-2.03,27.92,7.27,32.77,18.26
			c9.07,20.56,6.07,41.02-0.57,61.42C853.5,406.44,852.3,409.18,851.15,412.16z M837.39,404.38c5.1-19.26,7.06-37.67,0.47-56.1
			c-1.97-5.5-7.63-8.15-13.98-7.01c-8.98,1.62-17.14,5.31-21.59,13.6c-3.88,7.24-7.55,14.93-9.34,22.87
			c-2.98,13.22-3.87,26.86,2.72,39.49c1.71,3.27,4.84,6.68,8.15,8.07c7.43,3.13,20.81-1.39,26.46-8.05
			c-4.93-3.3-9.83-6.58-14.6-9.77c1.76-2.43,3.29-3.7,3.7-5.27c1.35-5.07,3.55-6.23,8.02-3.69
			C830.42,400.26,833.4,402.04,837.39,404.38z"/>
		<path d="M979.83,469.42c-0.58-1.12-1.17-2.25-1.7-3.27c0.37-0.49,0.58-0.97,0.76-0.97c3.43,0.12,6.9,0.73,10.27,0.36
			c3.69-0.4,4.22,2.3,4.93,4.41c2.6,7.72,4.83,15.56,7.29,23.33c6.99,22.05,14.01,44.1,21.09,66.12c0.81,2.52,1.56,4.67-2.24,4.81
			c0,2.07,0,3.9,0,7.33c-2.33-2.51-3.67-3.95-5.02-5.39c-7.28,3.39-7.76,3.16-10.23-5.05c-1.77-5.87-3.53-11.73-5.48-18.2
			c-11.76,3.4-23.21,6.66-34.6,10.11c-0.95,0.29-1.74,1.85-2.15,2.99c-2.71,7.5-5.16,15.11-7.99,22.57
			c-1.39,3.65-2.48,7.73-7.95,7.79c-2.07,0.02-4.11,1.89-6.06,2.86c-4.14-4.39-3.53-8.46-1.64-13.59
			c11.33-30.76,22.15-61.7,33.25-92.54c1.74-4.85,4.09-9.48,6.15-14.21C978.94,469.05,979.38,469.24,979.83,469.42z M985.39,492.33
			c-0.34,0-0.69-0.01-1.03-0.01c-4.69,13.43-9.38,26.86-14.45,41.34c9.24-2.72,17.1-5.03,25.13-7.39
			C991.68,514.46,988.54,503.4,985.39,492.33z"/>
		<path d="M874.26,416.74c0-1.51,0.04-3.02-0.01-4.53c-0.07-2.15-0.36-4.31-0.29-6.45c1.01-29.43,2.07-58.85,3.09-88.28
			c0.1-2.77,0.01-5.56,0.01-8.33c0.47-0.22,0.94-0.43,1.41-0.65c0.99,1.66,1.99,3.31,3.01,5.03c1.26-0.58,2.72-1.76,4.2-1.79
			c1.51-0.03,4.11,0.78,4.38,1.74c1.04,3.72,1.9,7.66,1.81,11.5c-0.24,10.62-0.98,21.23-1.55,32.29c4.71-3.21,8.78-6.5,13.29-8.97
			c13.67-7.47,27.69-0.68,30.73,14.63c3.37,17.02-6.4,40.06-21.51,48.96c-6.8,4-14.35,6.76-21.68,9.82
			c-6.94,2.9-12.31-1.45-18.03-3.95C873.52,417.42,873.89,417.08,874.26,416.74z M889.29,406.09c1.71-0.17,3.52-0.17,5.25-0.56
			c12.95-2.94,25.69-19.85,25.38-34.6c-0.07-3.56-1.75-8.54-4.37-10.16c-2.17-1.34-7.38,0.43-10.25,2.32
			C891.96,371.89,885.5,389.64,889.29,406.09z"/>
		<path d="M493.48,712.29c2.98,2.17,5.96,4.34,8.95,6.51c0.26-0.24,0.52-0.49,0.78-0.73c-1.09-1.73-1.83-3.91-3.34-5.11
			c-3.25-2.59-1.2-5.6-1.06-8.41c0.01-0.17,3.16-0.85,4.12-0.21c7.02,4.7,14.45,7.74,23.02,6.05c3.72-0.74,7.44-1.9,10.87-3.51
			c5.37-2.52,8.99-9.5,7.27-15.06c-0.77-2.48-3.66-5.16-6.18-6.06c-4.48-1.59-9.4-2.09-14.18-2.7
			c-17.3-2.19-25.53-17.14-17.47-32.54c6.55-12.51,17.3-19.21,31.37-19.81c7-0.3,13.51,1.98,18.27,7.58
			c1.14,1.34,1.72,3.15,2.56,4.75c-0.38,0.27-0.76,0.54-1.15,0.81c-1.99-1.83-3.97-3.66-5.96-5.49c-0.23,0.16-0.45,0.31-0.68,0.47
			c1.03,1.76,2.11,3.5,3.08,5.3c2.2,4.05,1.38,7.13-2.65,8.66c-0.88,0.33-2.79-0.68-3.54-1.62c-4.13-5.18-9.29-7.11-15.48-4.73
			c-6.56,2.53-10.4,7.49-11.29,14.6c-0.43,3.47,0.8,6.04,4.21,6.89c4.17,1.04,8.43,1.83,12.7,2.38
			c15.79,2.05,23.62,10.19,23.26,25.21c-0.24,10-5.19,17.72-13.45,23.26c-2.34,1.57-4.97,2.71-7.33,4.26
			c-16.21,10.63-33.79,4.49-44.49-5.32c-1.36-1.25-2.2-3.06-3.28-4.61C492.76,712.84,493.12,712.57,493.48,712.29z"/>
		<path d="M721.13,661.77c-4.16,3.5-7.92,6.99-12,10.04c-10.39,7.78-26.94-0.62-29.22-12.78c-2.96-15.8,5.38-37.9,18.58-46.94
			c6.32-4.33,13.2-6.15,21.16-3.52c0.74-11.16,1.46-22.03,2.16-32.56c2.53-0.74,4.38-1.3,6.24-1.82c3.81-1.06,7,2.17,6.76,6.89
			c-0.81,15.96-1.88,31.92-2.4,47.89c-0.33,10.29,0.06,20.61,0.32,30.92c0.03,1.3,1.24,2.57,2.11,4.24
			c-1.55,1.81-3.46,4.03-5.32,6.2C723.91,669.26,723.91,669.26,721.13,661.77z M719.05,627.84c0.28-7.79-1.59-9.2-8.82-6.25
			c-2.26,0.92-4.68,2.14-6.26,3.92c-8.12,9.13-12.08,19.79-10.18,32.08c1.04,6.72,4.49,7.92,9.48,3.39
			C713.02,652.12,719.02,641.38,719.05,627.84z"/>
		<path d="M827.72,604.35c0.21,16.54-5.37,30.28-19.67,39.55c-17.03,11.04-32.21,5.46-35.52-15.25
			c-2.8-17.51,3.52-33.16,16.34-45.63c7.48-7.27,16.6-7.95,25.98-4.38c9.14,3.48,12.1,11.24,12.85,20.22
			C827.85,600.68,827.72,602.52,827.72,604.35z M813.14,603.91c-0.13-1.36,0.07-3.82-0.7-5.94c-1.01-2.78-2.31-6.9-4.34-7.48
			c-2.53-0.73-6.8,0.69-8.79,2.7c-9.49,9.59-14.01,21.38-12.04,34.89c0.46,3.14,3.14,7.31,5.83,8.36c2.21,0.86,6.57-1.52,8.9-3.65
			C810.14,625.41,812.78,615.54,813.14,603.91z"/>
		<path d="M623.63,629.1c3.03-0.72,5.95-1.91,8.89-1.97c2.97-0.05,4.93,1.28,4.61,5.3c-1.01,12.42-1.69,24.88-2.02,37.33
			c-0.08,2.98,1.7,6.02,2.92,9.95c7.08-5.9,11.07-12.24,12.91-19.51c3-11.9,5.21-24.01,7.71-36.03c0.48-2.31,6.28-6.78,8.91-6.36
			c4.08,0.64,3.84,3.78,3.73,6.94c-0.52,13.8-1.2,27.61-1.21,41.42c-0.01,5.17,1.63,10.34,2.62,16.07
			c-5.54,5.22-8.72,3.75-13.5-7.58c-2.28,3.19-4.3,6.38-6.68,9.28c-4.09,4.97-9.13,8.74-15.92,6.79
			c-6.47-1.85-12.1-5.12-14.03-12.53c-2.96-11.37-2.04-22.81-1.03-34.26C621.96,639.16,622.86,634.43,623.63,629.1z"/>
		<path d="M986.05,341.94c-3.85,1.01-7,1.95-10.2,2.62c-1.09,0.23-3.21,0.08-3.36-0.39c-1.02-3.13-1.83-6.37-2.23-9.63
			c-0.1-0.85,1.32-2.2,2.34-2.81c1.4-0.83,3.08-1.22,4.66-1.71c10.1-3.12,10.08-3.12,10.72-13.86c0.28-4.6,0.7-9.19,2.14-14.27
			c0.93,1.27,1.87,2.55,2.7,3.68c2.08-0.62,4.28-1.59,6.54-1.79c0.84-0.07,2.52,1.6,2.64,2.62c0.41,3.59,0.32,7.24,0.4,10.86
			c0.04,1.77,0.01,3.53,0.01,5.73c6.16-1.48,11.91-2.86,17.34-4.17c0.66,0.69,1.02,0.9,1.09,1.17c2.48,10.04,2.48,10.05-7.11,13.42
			c-1.56,0.55-3.19,0.93-4.77,1.43c-8.57,2.67-8.75,2.67-8.97,11.48c-0.24,9.46-0.39,18.94-0.01,28.38c0.2,5.13,2.2,5.8,6.33,2.78
			c2.93-2.15,5.68-4.57,7.99-6.45c3.06-0.34,5.64-0.64,8.74-0.99c-1.11,2.35-2.01,4.23-3.09,6.52c1.47,0,2.62,0,3.86,0
			c-2.95,12.22-21.41,20.57-31.07,13.63c-3.47-2.49-6.34-7.69-6.89-11.98c-1.07-8.33-0.35-16.9-0.28-25.37
			C985.58,349.42,985.85,345.98,986.05,341.94z"/>
		<path d="M578.07,655.74c-2.09,0.48-5.05,0.97-7.88,1.85c-3.77,1.17-4.72-1.06-5.22-3.95c-0.29-1.65-0.42-3.33-0.76-6.07
			c3.35-1.3,7.52-3.22,11.87-4.5c3.5-1.03,4.55-3.05,4.76-6.45c0.39-6.53,1.19-13.04,1.7-18.21c3.71-0.63,6.39-1.09,9.07-1.55
			c3.15-0.54,4.6,0.93,4.62,3.98c0.03,4.79,0.01,9.59,0.01,14.66c4.54-1.16,8.97-2.32,13.41-3.41c2.99-0.73,4.79-0.46,4.21,3.6
			c-0.31,2.17,0.97,4.56,1.71,7.55c-5.42,1.84-10.95,4.02-16.65,5.54c-3.53,0.94-4.74,2.62-4.87,6.19
			c-0.33,9.63-1.14,19.25-1.53,28.88c-0.1,2.55-0.19,6.03,3.41,6.18c2.05,0.08,5.17-1.11,6.07-2.71c2.41-4.28,6.08-4.16,9.47-4.32
			c1.24,1.55,2.41,2.7,3.19,4.08c0.54,0.97,1.12,2.59,0.68,3.33c-3.82,6.53-9.13,11.61-16.57,13.49
			c-11.62,2.93-20.69-4.68-20.69-16.87C578.07,676.74,578.07,666.45,578.07,655.74z"/>
		<path d="M1038.33,450.04c3.83,4.96,7,1.07,9.65-0.19c3.51-1.68,4.45-0.15,4.72,2.39c0.42,3.94,0.37,7.95,0.28,11.93
			c-0.56,24.81-1.21,49.62-1.76,74.43c-0.15,6.61-0.02,13.22-0.02,20.55c-3.88-1.84-6.2-1.02-6.61,2.37
			c-2.09-0.45-4.47-0.26-5.49-1.35c-1.72-1.85-3.59-4.49-3.63-6.82c-0.19-12.65,0.08-25.32,0.36-37.97
			c0.45-20.81,1.02-41.61,1.57-62.42C1037.43,452.35,1037.78,451.74,1038.33,450.04z"/>
		<path d="M956.27,403.62c-2.03,0-4.06-0.03-6.08,0.01c-3.46,0.06-5.18-1.52-5.04-5.07c0.35-8.8,0.57-17.6,0.99-26.39
			c0.52-10.78,1.19-21.56,1.82-32.33c0.14-2.48-0.31-5.8,3.98-3.12c0.38,0.24,1.16,0.02,1.67-0.18c4.38-1.7,7.2,0.18,7.13,5.11
			c-0.23,15.77-0.45,31.55-0.97,47.31c-0.17,5.22-1.24,10.4-1.91,15.6C957.33,404.24,956.8,403.93,956.27,403.62z"/>
		<path d="M749.01,599.22c2.94-0.7,5.54-1.38,8.17-1.95c4.26-0.92,4.74,2.13,4.75,5c0.03,6.99-0.19,13.97-0.4,20.96
			c-0.29,9.64-0.56,19.29-1.06,28.92c-0.17,3.35-1,6.67-1.43,9.43c-2.17,0-3.88,0-6.33,0c-0.5-0.29-2.16-0.88-3.22-2.01
			c-1.08-1.15-2.27-2.86-2.24-4.31c0.34-16.63,0.89-33.25,1.41-49.88C748.73,603.07,748.92,600.76,749.01,599.22z"/>
		<path d="M954.29,325.33c-4.21,0.02-8.02-3.67-8.13-7.87c-0.13-5.01,4.75-10.25,9.57-10.25c4.19,0,8.09,3.72,8.18,7.81
			C964.02,319.96,959.03,325.3,954.29,325.33z"/>
		<path d="M765.18,577.18c0.03,4.68-5.3,10.28-9.78,10.27c-4-0.01-7.81-3.58-7.96-7.47c-0.2-5.02,4.85-10.09,10.17-10.21
			C761.88,569.67,765.15,572.87,765.18,577.18z"/>
		<path class="st2" d="M881.91,528.99c-4.7,7.94-9.41,15.89-14.11,23.83c-0.38-0.22-0.75-0.44-1.13-0.66
			c4.68-7.96,9.36-15.92,14.04-23.88C881.11,528.52,881.51,528.76,881.91,528.99z"/>
		<path class="st2" d="M837.39,404.38c-3.99-2.33-6.97-4.12-10-5.84c-4.46-2.55-6.67-1.38-8.02,3.69c-0.42,1.57-1.95,2.84-3.7,5.27
			c4.77,3.19,9.67,6.47,14.6,9.77c-5.65,6.66-19.03,11.18-26.46,8.05c-3.3-1.39-6.44-4.79-8.15-8.07
			c-6.59-12.64-5.7-26.28-2.72-39.49c1.79-7.94,5.45-15.64,9.34-22.87c4.45-8.29,12.62-11.99,21.59-13.6
			c6.35-1.14,12.01,1.5,13.98,7.01C844.45,366.71,842.49,385.11,837.39,404.38z"/>
		<path class="st2" d="M985.39,492.33c3.15,11.07,6.29,22.13,9.65,33.94c-8.03,2.36-15.88,4.67-25.13,7.39
			c5.06-14.49,9.75-27.92,14.45-41.34C984.7,492.32,985.05,492.33,985.39,492.33z"/>
		<path class="st2" d="M889.29,406.09c-3.79-16.45,2.67-34.2,16.01-42.99c2.87-1.89,8.08-3.66,10.25-2.32
			c2.61,1.62,4.29,6.59,4.37,10.16c0.31,14.75-12.43,31.66-25.38,34.6C892.82,405.92,891.01,405.92,889.29,406.09z"/>
		<path class="st2" d="M719.03,627.83c-0.01,13.54-6.01,24.29-15.76,33.14c-4.99,4.53-8.44,3.33-9.48-3.39
			c-1.9-12.3,2.06-22.95,10.18-32.08c1.58-1.77,4-2.99,6.26-3.92C717.45,618.64,719.33,620.05,719.03,627.83z"/>
		<path class="st2" d="M813.14,603.91c-0.37,11.63-3,21.5-11.13,28.89c-2.34,2.12-6.69,4.51-8.9,3.65
			c-2.69-1.05-5.38-5.22-5.83-8.36c-1.97-13.51,2.56-25.3,12.04-34.89c1.99-2.01,6.26-3.43,8.79-2.7c2.03,0.58,3.33,4.7,4.34,7.48
			C813.21,600.09,813.01,602.56,813.14,603.91z"/>
	</g>
</g>
<g id="Слой_2">
	<g>
		<path class="st2" d="M136,890.5c0-229.52,0-458.7,0-688c501.34,0,1002.67,0,1504,0c0,229.32,0,458.66,0,688
			C1138.72,890.5,637.44,890.5,136,890.5z M787.85,392.56c-2.49,3.89-4.13,6.36-5.68,8.88c-28.72,46.8-57.53,93.54-85.96,140.52
			c-2.39,3.94-7.98,5.65-7.66,11.4c0.09,1.64-0.55,3.31-0.85,4.97c1.88-0.05,3.87,0.29,5.62-0.19
			c19.56-5.41,38.97-11.35,58.63-16.37c51.59-13.16,103.28-25.96,154.94-38.83c34.03-8.48,68.09-16.81,102.14-25.23
			c21.95-5.43,43.91-10.81,65.82-16.38c12.47-3.17,26.23-3.26,35.38-14.72c-3.21-3.2-7.69-4.46-12.31-3.33
			c-47.72,11.59-95.4,23.37-143.09,35.07c-74.7,18.33-149.4,36.64-224.1,54.94c-5.35,1.31-10.72,2.49-17.41,4.04
			c25.29-40.81,49.77-80.33,74.69-120.54c2.24,3.24,3.74,5.42,5.26,7.59c11.13,15.99,22.31,31.96,33.37,48
			c2.5,3.63,4.79,5.93,6.92,2.31c4.52-0.59,7.66-0.99,11.6-1.5C825.86,446.03,807.15,419.7,787.85,392.56z M1019.96,494.08
			c-27.37,7.3-54.63,14.85-82.04,21.8c-40.81,10.35-81.74,20.21-122.59,30.4c-52.31,13.05-104.7,25.86-156.83,39.6
			c-13.82,3.64-28.98,3.97-40.9,13.54c-1,0.8-1.72,1.95-2.56,2.93c1.18,0.14,2.36,0.31,3.55,0.4c0.79,0.06,1.58,0.01,2.39,0.01
			c0.3,1.71,0.56,3.22,1.01,5.83c123.68-36.08,249.46-61.49,374.86-94.06c-20.7,35.54-40.66,69.8-60.98,104.69
			c-10.46-12.68-20.53-24.89-31.19-37.81c-2.59,3.52-4.34,5.9-6.11,8.31c-0.86-0.58-2.28-1.54-3.7-2.5
			c-0.46,0.35-0.93,0.7-1.39,1.05c1.26,2.02,2.28,4.25,3.83,6.01c13.12,14.98,27.62,28.8,37.97,46.08c0.31,0.51,2.7,0.57,3.19,0.02
			c1.8-2.04,3.41-4.31,4.72-6.7c5.68-10.32,10.86-20.94,16.9-31.05c18.61-31.14,37.6-62.06,56.26-93.17
			C1018.98,505.05,1023.65,500.84,1019.96,494.08z M745.29,514.74c-0.56,1.63-1.13,2.93-1.36,4.28c-0.04,0.25,1.33,1.16,1.92,1.05
			c3.9-0.74,7.79-1.57,11.63-2.56c19.01-4.89,37.98-9.97,57.02-14.75c35.35-8.86,70.75-17.52,106.1-26.34
			c45.39-11.33,90.73-22.85,136.14-34.07c28.75-7.11,57.6-13.82,86.39-20.74c3.44-0.83,6.83-1.83,10.24-2.75
			c0.02-0.39,0.03-0.78,0.05-1.17c-1.03-0.4-2.07-0.8-3.72-1.44c3.91-1.6,6.2-2.54,8.5-3.48c-0.13-0.48-0.26-0.95-0.39-1.43
			c-2.04,0.25-4.07,0.49-6.11,0.74c-0.02-0.17-0.04-0.34-0.06-0.51c2.36-0.86,4.72-1.71,7.07-2.57c-0.13-0.54-0.25-1.08-0.38-1.61
			c-3.49,0-7.16-0.71-10.45,0.11c-21.14,5.27-42.16,11.04-63.3,16.34c-60.69,15.21-121.39,30.37-182.13,45.38
			c-43.31,10.7-86.69,21.13-130.05,31.67c-1.63,0.4-3.3,0.65-6.43,1.25c9.08-14.44,17.27-27.55,25.59-40.58
			c1.28-2.01,3.22-3.6,5.38-5.96c-2.19-3.64-4.87-8.11-7.92-13.18c-1.61,2.62-2.54,4.15-3.49,5.66
			c-9.64,15.36-19.19,30.77-28.96,46.04c-4.11,6.43-6.54,14.35-14.59,17.58c-0.38,0.15-0.44,1.11-0.77,2.01
			C742.74,514.1,743.97,514.41,745.29,514.74z M563.06,641.48c5.54,2.91,9.88,4.53,15.06,3.04c29.09-8.36,58.11-17.02,87.38-24.69
			c38.59-10.11,77.37-19.5,116.12-29c26.44-6.48,52.99-12.49,79.43-18.94c26.96-6.58,53.86-13.43,80.79-20.14
			c1.03-0.26,2.14-0.19,3.83-0.32c-6.22,10.7-12.12,20.83-18.09,31.09c1.49,0.82,2.56,1.41,3.94,2.18
			c-5.33,6.4,3.53,6.43,3.76,11.29c1.38-1.6,2.24-2.32,2.77-3.24c7.06-12.24,13.97-24.56,21.15-36.73
			c3.08-5.23,6.72-10.12,10.02-15.23c0.44-0.68,0.71-1.97,0.35-2.53c-0.33-0.52-1.6-0.55-2.46-0.57c-0.67-0.02-1.34,0.3-2.02,0.48
			c-0.08-0.23-0.16-0.46-0.24-0.7c1.7-0.75,3.39-1.5,6.39-2.82c-2.42-1.03-3.79-2.15-5.05-2.04c-3.09,0.27-6.17,0.98-9.19,1.75
			c-50.64,12.86-101.25,25.84-151.91,38.64c-64.39,16.27-128.83,32.34-193.21,48.64c-14.26,3.61-28.38,7.8-43.19,11.89
			c1.24,2.08,1.91,3.23,2.61,4.4C568.67,639.08,566.33,640.08,563.06,641.48z M920.15,434.66c1.15-2.98,2.35-5.71,3.27-8.54
			c6.64-20.41,9.64-40.86,0.57-61.42c-4.85-11-20.83-20.3-32.77-18.26c-21.53,3.67-34.76,17.99-43.47,36.68
			c-6.85,14.7-9.26,30.53-6.93,46.8c2.45,17.18,8.96,30.8,28.23,34.86c9.95,2.09,19.79,2.85,28.41-4.34
			c4.95-4.13,10.04-8.09,14.95-12.04c7,2.94,14.12,5.92,21.35,8.95c1.8-3.63,3.23-6.53,4.93-9.95
			C932.71,443.28,926.46,438.98,920.15,434.66z M1048.83,491.92c-0.45-0.18-0.89-0.37-1.34-0.55c-2.07,4.73-4.41,9.36-6.15,14.21
			c-11.1,30.84-21.92,61.79-33.25,92.54c-1.89,5.14-2.5,9.2,1.64,13.59c1.95-0.97,4-2.84,6.06-2.86c5.48-0.05,6.57-4.14,7.95-7.79
			c2.83-7.46,5.28-15.06,7.99-22.57c0.41-1.14,1.21-2.7,2.15-2.99c11.39-3.46,22.85-6.71,34.6-10.11c1.95,6.47,3.71,12.33,5.48,18.2
			c2.47,8.21,2.95,8.44,10.23,5.05c1.34,1.44,2.68,2.88,5.01,5.39c0-3.43,0-5.26,0-7.33c3.8-0.14,3.05-2.3,2.24-4.81
			c-7.08-22.02-14.09-44.07-21.09-66.12c-2.46-7.77-4.69-15.61-7.29-23.33c-0.71-2.1-1.23-4.8-4.93-4.41
			c-3.37,0.36-6.84-0.24-10.27-0.36c-0.19-0.01-0.39,0.48-0.76,0.97C1047.66,489.67,1048.24,490.8,1048.83,491.92z M943.26,439.24
			c-0.37,0.34-0.74,0.68-1.12,1.02c5.73,2.49,11.1,6.85,18.03,3.95c7.32-3.06,14.88-5.82,21.68-9.82
			c15.12-8.9,24.89-31.94,21.51-48.96c-3.03-15.31-17.06-22.1-30.73-14.63c-4.52,2.47-8.58,5.76-13.29,8.97
			c0.57-11.06,1.31-21.67,1.55-32.29c0.09-3.84-0.77-7.78-1.81-11.5c-0.27-0.96-2.87-1.77-4.38-1.74c-1.48,0.03-2.94,1.21-4.2,1.79
			c-1.03-1.71-2.02-3.37-3.01-5.03c-0.47,0.22-0.94,0.43-1.41,0.65c0,2.78,0.08,5.56-0.01,8.33c-1.02,29.43-2.09,58.85-3.09,88.28
			c-0.07,2.15,0.22,4.3,0.29,6.45C943.3,436.22,943.26,437.73,943.26,439.24z M562.48,734.79c-0.36,0.27-0.72,0.55-1.07,0.82
			c1.08,1.55,1.92,3.36,3.28,4.61c10.71,9.82,28.28,15.95,44.49,5.32c2.36-1.55,4.99-2.69,7.33-4.26
			c8.26-5.54,13.2-13.26,13.45-23.26c0.36-15.01-7.47-23.16-23.26-25.21c-4.27-0.55-8.53-1.34-12.7-2.38
			c-3.41-0.85-4.65-3.42-4.21-6.89c0.89-7.11,4.73-12.07,11.29-14.6c6.19-2.38,11.34-0.45,15.48,4.73c0.75,0.94,2.66,1.95,3.54,1.62
			c4.03-1.53,4.85-4.61,2.65-8.66c-0.97-1.79-2.05-3.53-3.08-5.3c0.23-0.16,0.45-0.31,0.68-0.47c1.99,1.83,3.97,3.66,5.96,5.49
			c0.38-0.27,0.76-0.54,1.15-0.81c-0.84-1.6-1.42-3.41-2.56-4.75c-4.76-5.6-11.27-7.88-18.27-7.58c-14.07,0.6-24.82,7.3-31.37,19.81
			c-8.06,15.4,0.17,30.34,17.47,32.54c4.78,0.61,9.7,1.11,14.18,2.7c2.53,0.9,5.42,3.58,6.18,6.06c1.72,5.57-1.9,12.54-7.27,15.06
			c-3.42,1.61-7.15,2.77-10.87,3.51c-8.57,1.7-16-1.34-23.02-6.05c-0.96-0.64-4.11,0.04-4.12,0.21c-0.14,2.81-2.19,5.82,1.06,8.41
			c1.51,1.2,2.25,3.38,3.34,5.11c-0.26,0.24-0.52,0.48-0.78,0.73C568.44,739.14,565.46,736.96,562.48,734.79z M790.13,684.27
			c2.78,7.49,2.78,7.49,8.38,8.57c1.86-2.17,3.77-4.39,5.32-6.2c-0.86-1.67-2.07-2.94-2.11-4.24c-0.26-10.3-0.65-20.62-0.32-30.92
			c0.52-15.97,1.59-31.93,2.4-47.89c0.24-4.73-2.95-7.95-6.76-6.89c-1.86,0.52-3.71,1.08-6.24,1.82
			c-0.7,10.53-1.42,21.41-2.16,32.56c-7.96-2.63-14.84-0.81-21.16,3.52c-13.2,9.04-21.55,31.13-18.58,46.94
			c2.28,12.16,18.83,20.56,29.22,12.78C782.21,691.26,785.97,687.77,790.13,684.27z M896.72,626.85c0-1.83,0.13-3.67-0.02-5.49
			c-0.75-8.97-3.71-16.74-12.85-20.22c-9.39-3.57-18.51-2.9-25.98,4.38c-12.83,12.47-19.15,28.11-16.34,45.63
			c3.31,20.71,18.49,26.29,35.52,15.25C891.34,657.13,896.93,643.39,896.72,626.85z M692.63,651.6c-0.77,5.33-1.67,10.06-2.1,14.83
			c-1.02,11.45-1.94,22.89,1.03,34.26c1.93,7.42,7.56,10.68,14.03,12.53c6.79,1.94,11.83-1.82,15.92-6.79
			c2.38-2.89,4.4-6.08,6.68-9.28c4.78,11.33,7.96,12.81,13.5,7.58c-0.99-5.73-2.63-10.91-2.62-16.07
			c0.02-13.81,0.7-27.61,1.21-41.42c0.12-3.16,0.35-6.3-3.73-6.94c-2.63-0.41-8.43,4.05-8.91,6.36c-2.5,12.03-4.71,24.13-7.71,36.03
			c-1.83,7.27-5.83,13.61-12.91,19.51c-1.21-3.94-3-6.97-2.92-9.95c0.33-12.46,1.01-24.91,2.02-37.33c0.33-4.02-1.64-5.35-4.61-5.3
			C698.58,649.69,695.66,650.88,692.63,651.6z M1055.05,364.44c-0.19,4.04-0.47,7.47-0.5,10.91c-0.07,8.47-0.79,17.04,0.28,25.37
			c0.55,4.29,3.42,9.49,6.89,11.98c9.67,6.94,28.12-1.41,31.07-13.63c-1.25,0-2.39,0-3.86,0c1.08-2.29,1.97-4.17,3.09-6.52
			c-3.09,0.35-5.68,0.64-8.74,0.99c-2.31,1.88-5.05,4.3-7.99,6.45c-4.12,3.03-6.12,2.35-6.33-2.78c-0.38-9.45-0.23-18.92,0.01-28.38
			c0.23-8.81,0.41-8.8,8.97-11.48c1.58-0.49,3.21-0.88,4.77-1.43c9.6-3.37,9.6-3.38,7.11-13.42c-0.07-0.28-0.43-0.48-1.09-1.17
			c-5.43,1.3-11.17,2.68-17.34,4.17c0-2.2,0.03-3.96-0.01-5.73c-0.07-3.63,0.01-7.27-0.4-10.86c-0.12-1.01-1.8-2.69-2.64-2.62
			c-2.26,0.19-4.46,1.17-6.54,1.79c-0.83-1.14-1.77-2.41-2.7-3.68c-1.44,5.08-1.86,9.67-2.14,14.27
			c-0.65,10.74-0.62,10.74-10.72,13.86c-1.59,0.49-3.26,0.88-4.66,1.71c-1.03,0.61-2.45,1.95-2.34,2.81c0.4,3.26,1.22,6.5,2.23,9.63
			c0.15,0.46,2.26,0.62,3.36,0.39C1048.05,366.39,1051.2,365.45,1055.05,364.44z M647.07,678.24c0,10.72,0,21,0,31.28
			c0,12.19,9.07,19.8,20.69,16.87c7.44-1.88,12.75-6.96,16.57-13.49c0.44-0.74-0.14-2.36-0.68-3.33c-0.77-1.38-1.95-2.54-3.19-4.08
			c-3.38,0.16-7.05,0.04-9.47,4.32c-0.9,1.6-4.02,2.8-6.07,2.71c-3.61-0.15-3.52-3.63-3.41-6.18c0.4-9.63,1.2-19.25,1.53-28.88
			c0.12-3.57,1.34-5.25,4.87-6.19c5.7-1.52,11.23-3.7,16.65-5.54c-0.74-2.99-2.01-5.38-1.71-7.55c0.57-4.06-1.22-4.33-4.21-3.6
			c-4.45,1.09-8.88,2.25-13.41,3.41c0-5.07,0.02-9.87-0.01-14.66c-0.02-3.05-1.47-4.52-4.62-3.98c-2.68,0.46-5.37,0.92-9.07,1.55
			c-0.5,5.17-1.3,11.68-1.7,18.21c-0.21,3.4-1.26,5.42-4.76,6.45c-4.35,1.28-8.52,3.2-11.87,4.5c0.34,2.74,0.47,4.42,0.76,6.07
			c0.5,2.89,1.45,5.12,5.22,3.95C642.02,679.21,644.98,678.71,647.07,678.24z M1107.33,472.54c-0.55,1.71-0.91,2.31-0.92,2.92
			c-0.55,20.8-1.12,41.61-1.57,62.42c-0.27,12.66-0.54,25.32-0.36,37.97c0.03,2.33,1.91,4.97,3.63,6.82
			c1.01,1.09,3.4,0.89,5.49,1.35c0.42-3.39,2.73-4.21,6.61-2.37c0-7.33-0.12-13.94,0.02-20.55c0.55-24.81,1.2-49.62,1.76-74.43
			c0.09-3.98,0.14-7.99-0.28-11.93c-0.27-2.53-1.22-4.07-4.72-2.39C1114.34,473.61,1111.17,477.5,1107.33,472.54z M1025.27,426.12
			c0.53,0.31,1.06,0.62,1.59,0.93c0.66-5.2,1.73-10.39,1.91-15.6c0.52-15.76,0.74-31.54,0.97-47.31c0.07-4.93-2.75-6.81-7.13-5.11
			c-0.52,0.2-1.29,0.41-1.67,0.18c-4.29-2.68-3.84,0.64-3.98,3.12c-0.63,10.78-1.29,21.55-1.82,32.33
			c-0.42,8.79-0.64,17.59-0.99,26.39c-0.14,3.55,1.58,5.13,5.04,5.07C1021.21,426.09,1023.24,426.12,1025.27,426.12z M818.01,621.72
			c-0.09,1.54-0.27,3.85-0.35,6.16c-0.52,16.62-1.07,33.25-1.41,49.88c-0.03,1.44,1.16,3.16,2.24,4.31
			c1.07,1.13,2.72,1.72,3.22,2.01c2.46,0,4.17,0,6.33,0c0.43-2.75,1.26-6.07,1.43-9.43c0.5-9.63,0.77-19.28,1.06-28.92
			c0.21-6.98,0.43-13.97,0.4-20.96c-0.01-2.87-0.5-5.92-4.75-5C823.55,620.34,820.94,621.02,818.01,621.72z M1023.29,347.83
			c4.74-0.02,9.72-5.37,9.62-10.31c-0.09-4.09-3.99-7.82-8.18-7.81c-4.82,0.01-9.7,5.24-9.57,10.25
			C1015.28,344.16,1019.08,347.85,1023.29,347.83z M834.18,599.68c-0.03-4.31-3.3-7.51-7.57-7.41c-5.33,0.13-10.37,5.19-10.17,10.21
			c0.15,3.89,3.96,7.46,7.96,7.47C828.88,609.96,834.21,604.36,834.18,599.68z"/>
		<path d="M787.85,392.56c19.29,27.14,38.01,53.48,57.3,80.62c-3.94,0.51-7.08,0.92-11.6,1.5c-2.13,3.62-4.42,1.32-6.92-2.31
			c-11.06-16.04-22.24-32.01-33.37-48c-1.51-2.17-3.01-4.35-5.26-7.59c-24.92,40.21-49.4,79.72-74.69,120.54
			c6.69-1.55,12.07-2.73,17.41-4.04c74.7-18.3,149.4-36.61,224.1-54.94c47.69-11.7,95.37-23.48,143.09-35.07
			c4.63-1.12,9.11,0.13,12.31,3.33c-9.15,11.46-22.91,11.55-35.38,14.72c-21.91,5.57-43.87,10.95-65.82,16.38
			c-34.04,8.42-68.11,16.75-102.14,25.23c-51.67,12.87-103.35,25.67-154.94,38.83c-19.66,5.01-39.07,10.96-58.63,16.37
			c-1.76,0.49-3.74,0.15-5.62,0.19c0.3-1.66,0.94-3.33,0.85-4.97c-0.31-5.74,5.27-7.45,7.66-11.4
			c28.43-46.97,57.24-93.72,85.96-140.52C783.73,398.92,785.36,396.45,787.85,392.56z"/>
		<path d="M1019.96,494.08c3.69,6.76-0.98,10.96-3.63,15.38c-18.66,31.11-37.65,62.03-56.26,93.17
			c-6.04,10.11-11.22,20.72-16.9,31.05c-1.31,2.39-2.92,4.66-4.72,6.7c-0.49,0.55-2.89,0.49-3.19-0.02
			c-10.35-17.28-24.85-31.1-37.97-46.08c-1.55-1.77-2.57-4-3.83-6.01c0.46-0.35,0.93-0.7,1.39-1.05c1.42,0.96,2.84,1.92,3.7,2.5
			c1.77-2.41,3.52-4.79,6.11-8.31c10.66,12.93,20.73,25.14,31.19,37.81c20.32-34.89,40.28-69.15,60.98-104.69
			c-125.4,32.56-251.17,57.98-374.86,94.06c-0.45-2.61-0.72-4.12-1.01-5.83c-0.81,0-1.61,0.05-2.39-0.01
			c-1.19-0.09-2.37-0.26-3.55-0.4c0.85-0.99,1.57-2.13,2.56-2.93c11.93-9.56,27.09-9.89,40.9-13.54
			c52.13-13.74,104.52-26.55,156.83-39.6c40.85-10.19,81.78-20.05,122.59-30.4C965.33,508.93,992.59,501.38,1019.96,494.08z"/>
		<path d="M745.29,514.74c-1.32-0.33-2.54-0.64-4.07-1.03c0.33-0.9,0.39-1.86,0.77-2.01c8.05-3.23,10.48-11.15,14.59-17.58
			c9.77-15.27,19.32-30.68,28.96-46.04c0.95-1.51,1.88-3.04,3.49-5.66c3.04,5.06,5.73,9.53,7.92,13.18
			c-2.16,2.36-4.09,3.95-5.38,5.96c-8.32,13.02-16.51,26.14-25.59,40.58c3.12-0.6,4.79-0.85,6.43-1.25
			c43.35-10.54,86.73-20.97,130.05-31.67c60.74-15.01,121.44-30.16,182.13-45.38c21.14-5.3,42.16-11.07,63.3-16.34
			c3.29-0.82,6.96-0.11,10.45-0.11c0.13,0.54,0.25,1.08,0.38,1.61c-2.36,0.86-4.72,1.71-7.07,2.57c0.02,0.17,0.04,0.34,0.06,0.51
			c2.04-0.25,4.07-0.49,6.11-0.74c0.13,0.48,0.26,0.95,0.39,1.43c-2.29,0.94-4.59,1.88-8.5,3.48c1.65,0.64,2.68,1.04,3.72,1.44
			c-0.02,0.39-0.03,0.78-0.05,1.17c-3.41,0.92-6.81,1.93-10.24,2.75c-28.8,6.92-57.64,13.63-86.39,20.74
			c-45.41,11.23-90.75,22.74-136.14,34.07c-35.36,8.82-70.76,17.48-106.1,26.34c-19.04,4.78-38.01,9.85-57.02,14.75
			c-3.84,0.99-7.73,1.82-11.63,2.56c-0.58,0.11-1.96-0.79-1.92-1.05C744.16,517.67,744.73,516.37,745.29,514.74z"/>
		<path d="M563.06,641.48c3.26-1.4,5.61-2.4,8.25-3.53c-0.7-1.18-1.37-2.32-2.61-4.4c14.81-4.09,28.92-8.28,43.19-11.89
			c64.38-16.3,128.82-32.37,193.21-48.64c50.66-12.8,101.27-25.77,151.91-38.64c3.02-0.77,6.1-1.48,9.19-1.75
			c1.26-0.11,2.63,1.01,5.05,2.04c-3,1.32-4.7,2.07-6.39,2.82c0.08,0.23,0.16,0.46,0.24,0.7c0.67-0.17,1.35-0.49,2.02-0.48
			c0.86,0.02,2.13,0.05,2.46,0.57c0.36,0.55,0.09,1.85-0.35,2.53c-3.29,5.11-6.93,10-10.02,15.23
			c-7.18,12.17-14.09,24.49-21.15,36.73c-0.53,0.92-1.38,1.64-2.77,3.24c-0.23-4.86-9.09-4.89-3.76-11.29
			c-1.39-0.77-2.46-1.36-3.94-2.18c5.97-10.27,11.87-20.39,18.09-31.09c-1.7,0.13-2.8,0.07-3.83,0.32
			c-26.93,6.7-53.83,13.56-80.79,20.14c-26.44,6.45-52.99,12.46-79.43,18.94c-38.75,9.5-77.53,18.89-116.12,29
			c-29.27,7.67-58.29,16.33-87.38,24.69C572.95,646.01,568.6,644.4,563.06,641.48z M950.91,551.49c-0.4-0.24-0.8-0.47-1.2-0.71
			c-4.68,7.96-9.36,15.92-14.04,23.88c0.38,0.22,0.75,0.44,1.13,0.66C941.5,567.38,946.2,559.43,950.91,551.49z"/>
		<path d="M920.15,434.66c6.31,4.33,12.57,8.62,18.55,12.73c-1.7,3.43-3.13,6.33-4.93,9.95c-7.23-3.03-14.35-6.02-21.35-8.95
			c-4.91,3.95-9.99,7.92-14.95,12.04c-8.62,7.18-18.46,6.43-28.41,4.34c-19.27-4.05-25.78-17.67-28.23-34.86
			c-2.32-16.27,0.08-32.09,6.93-46.8c8.71-18.69,21.93-33.01,43.47-36.68c11.94-2.03,27.92,7.27,32.77,18.26
			c9.07,20.56,6.07,41.02-0.57,61.42C922.5,428.94,921.3,431.68,920.15,434.66z M906.39,426.88c5.1-19.26,7.06-37.67,0.47-56.1
			c-1.97-5.5-7.63-8.15-13.98-7.01c-8.98,1.62-17.14,5.31-21.59,13.6c-3.88,7.24-7.55,14.93-9.34,22.87
			c-2.98,13.22-3.87,26.86,2.72,39.49c1.71,3.27,4.84,6.68,8.15,8.07c7.43,3.13,20.81-1.39,26.46-8.05
			c-4.93-3.3-9.83-6.58-14.6-9.77c1.76-2.43,3.29-3.7,3.7-5.27c1.35-5.07,3.55-6.23,8.02-3.69
			C899.42,422.76,902.4,424.54,906.39,426.88z"/>
		<path d="M1048.83,491.92c-0.58-1.12-1.17-2.25-1.7-3.27c0.37-0.49,0.58-0.97,0.76-0.97c3.43,0.12,6.9,0.73,10.27,0.36
			c3.69-0.4,4.22,2.3,4.93,4.41c2.6,7.72,4.83,15.56,7.29,23.33c6.99,22.05,14.01,44.1,21.09,66.12c0.81,2.52,1.56,4.67-2.24,4.81
			c0,2.07,0,3.9,0,7.33c-2.33-2.51-3.67-3.95-5.02-5.39c-7.28,3.39-7.76,3.16-10.23-5.05c-1.77-5.87-3.53-11.73-5.48-18.2
			c-11.76,3.4-23.21,6.66-34.6,10.11c-0.95,0.29-1.74,1.85-2.15,2.99c-2.71,7.5-5.16,15.11-7.99,22.57
			c-1.39,3.65-2.48,7.73-7.95,7.79c-2.07,0.02-4.11,1.89-6.06,2.86c-4.14-4.39-3.53-8.46-1.64-13.59
			c11.33-30.76,22.15-61.7,33.25-92.54c1.74-4.85,4.09-9.48,6.15-14.21C1047.94,491.55,1048.38,491.74,1048.83,491.92z
			 M1054.39,514.83c-0.34,0-0.69-0.01-1.03-0.01c-4.69,13.43-9.38,26.86-14.45,41.34c9.24-2.72,17.1-5.03,25.13-7.39
			C1060.68,536.96,1057.54,525.9,1054.39,514.83z"/>
		<path d="M943.26,439.24c0-1.51,0.04-3.02-0.01-4.53c-0.07-2.15-0.36-4.31-0.29-6.45c1.01-29.43,2.07-58.85,3.09-88.28
			c0.1-2.77,0.01-5.56,0.01-8.33c0.47-0.22,0.94-0.43,1.41-0.65c0.99,1.66,1.99,3.31,3.01,5.03c1.26-0.58,2.72-1.76,4.2-1.79
			c1.51-0.03,4.11,0.78,4.38,1.74c1.04,3.72,1.9,7.66,1.81,11.5c-0.24,10.62-0.98,21.23-1.55,32.29c4.71-3.21,8.78-6.5,13.29-8.97
			c13.67-7.47,27.69-0.68,30.73,14.63c3.37,17.02-6.4,40.06-21.51,48.96c-6.8,4-14.35,6.76-21.68,9.82
			c-6.94,2.9-12.31-1.45-18.03-3.95C942.52,439.92,942.89,439.58,943.26,439.24z M958.29,428.59c1.71-0.17,3.52-0.17,5.25-0.56
			c12.95-2.94,25.69-19.85,25.38-34.6c-0.07-3.56-1.75-8.54-4.37-10.16c-2.17-1.34-7.38,0.43-10.25,2.32
			C960.96,394.39,954.5,412.14,958.29,428.59z"/>
		<path d="M562.48,734.79c2.98,2.17,5.96,4.34,8.95,6.51c0.26-0.24,0.52-0.49,0.78-0.73c-1.09-1.73-1.83-3.91-3.34-5.11
			c-3.25-2.59-1.2-5.6-1.06-8.41c0.01-0.17,3.16-0.85,4.12-0.21c7.02,4.7,14.45,7.74,23.02,6.05c3.72-0.74,7.44-1.9,10.87-3.51
			c5.37-2.52,8.99-9.5,7.27-15.06c-0.77-2.48-3.66-5.16-6.18-6.06c-4.48-1.59-9.4-2.09-14.18-2.7
			c-17.3-2.19-25.53-17.14-17.47-32.54c6.55-12.51,17.3-19.21,31.37-19.81c7-0.3,13.51,1.98,18.27,7.58
			c1.14,1.34,1.72,3.15,2.56,4.75c-0.38,0.27-0.76,0.54-1.15,0.81c-1.99-1.83-3.97-3.66-5.96-5.49c-0.23,0.16-0.45,0.31-0.68,0.47
			c1.03,1.76,2.11,3.5,3.08,5.3c2.2,4.05,1.38,7.13-2.65,8.66c-0.88,0.33-2.79-0.68-3.54-1.62c-4.13-5.18-9.29-7.11-15.48-4.73
			c-6.56,2.53-10.4,7.49-11.29,14.6c-0.43,3.47,0.8,6.04,4.21,6.89c4.17,1.04,8.43,1.83,12.7,2.38
			c15.79,2.05,23.62,10.19,23.26,25.21c-0.24,10-5.19,17.72-13.45,23.26c-2.34,1.57-4.97,2.71-7.33,4.26
			c-16.21,10.63-33.79,4.49-44.49-5.32c-1.36-1.25-2.2-3.06-3.28-4.61C561.76,735.34,562.12,735.07,562.48,734.79z"/>
		<path d="M790.13,684.27c-4.16,3.5-7.92,6.99-12,10.04c-10.39,7.78-26.94-0.62-29.22-12.78c-2.96-15.8,5.38-37.9,18.58-46.94
			c6.32-4.33,13.2-6.15,21.16-3.52c0.74-11.16,1.46-22.03,2.16-32.56c2.53-0.74,4.38-1.3,6.24-1.82c3.81-1.06,7,2.17,6.76,6.89
			c-0.81,15.96-1.88,31.92-2.4,47.89c-0.33,10.29,0.06,20.61,0.32,30.92c0.03,1.3,1.24,2.57,2.11,4.24
			c-1.55,1.81-3.46,4.03-5.32,6.2C792.91,691.76,792.91,691.76,790.13,684.27z M788.05,650.34c0.28-7.79-1.59-9.2-8.82-6.25
			c-2.26,0.92-4.68,2.14-6.26,3.92c-8.12,9.13-12.08,19.79-10.18,32.08c1.04,6.72,4.49,7.92,9.48,3.39
			C782.02,674.62,788.02,663.88,788.05,650.34z"/>
		<path d="M896.72,626.85c0.21,16.54-5.37,30.28-19.67,39.55c-17.03,11.04-32.21,5.46-35.52-15.25
			c-2.8-17.51,3.52-33.16,16.34-45.63c7.48-7.27,16.6-7.95,25.98-4.38c9.14,3.48,12.1,11.24,12.85,20.22
			C896.85,623.18,896.72,625.02,896.72,626.85z M882.14,626.41c-0.13-1.36,0.07-3.82-0.7-5.94c-1.01-2.78-2.31-6.9-4.34-7.48
			c-2.53-0.73-6.8,0.69-8.79,2.7c-9.49,9.59-14.01,21.38-12.04,34.89c0.46,3.14,3.14,7.31,5.83,8.36c2.21,0.86,6.57-1.52,8.9-3.65
			C879.14,647.91,881.78,638.04,882.14,626.41z"/>
		<path d="M692.63,651.6c3.03-0.72,5.95-1.91,8.89-1.97c2.97-0.05,4.93,1.28,4.61,5.3c-1.01,12.42-1.69,24.88-2.02,37.33
			c-0.08,2.98,1.7,6.02,2.92,9.95c7.08-5.9,11.07-12.24,12.91-19.51c3-11.9,5.21-24.01,7.71-36.03c0.48-2.31,6.28-6.78,8.91-6.36
			c4.08,0.64,3.84,3.78,3.73,6.94c-0.52,13.8-1.2,27.61-1.21,41.42c-0.01,5.17,1.63,10.34,2.62,16.07
			c-5.54,5.22-8.72,3.75-13.5-7.58c-2.28,3.19-4.3,6.38-6.68,9.28c-4.09,4.97-9.13,8.74-15.92,6.79
			c-6.47-1.85-12.1-5.12-14.03-12.53c-2.96-11.37-2.04-22.81-1.03-34.26C690.96,661.66,691.86,656.93,692.63,651.6z"/>
		<path d="M1055.05,364.44c-3.85,1.01-7,1.95-10.2,2.62c-1.09,0.23-3.21,0.08-3.36-0.39c-1.02-3.13-1.83-6.37-2.23-9.63
			c-0.1-0.85,1.32-2.2,2.34-2.81c1.4-0.83,3.08-1.22,4.66-1.71c10.1-3.12,10.08-3.12,10.72-13.86c0.28-4.6,0.7-9.19,2.14-14.27
			c0.93,1.27,1.87,2.55,2.7,3.68c2.08-0.62,4.28-1.59,6.54-1.79c0.84-0.07,2.52,1.6,2.64,2.62c0.41,3.59,0.32,7.24,0.4,10.86
			c0.04,1.77,0.01,3.53,0.01,5.73c6.16-1.48,11.91-2.86,17.34-4.17c0.66,0.69,1.02,0.9,1.09,1.17c2.48,10.04,2.48,10.05-7.11,13.42
			c-1.56,0.55-3.19,0.93-4.77,1.43c-8.57,2.67-8.75,2.67-8.97,11.48c-0.24,9.46-0.39,18.94-0.01,28.38c0.2,5.13,2.2,5.8,6.33,2.78
			c2.93-2.15,5.68-4.57,7.99-6.45c3.06-0.34,5.64-0.64,8.74-0.99c-1.11,2.35-2.01,4.23-3.09,6.52c1.47,0,2.62,0,3.86,0
			c-2.95,12.22-21.41,20.57-31.07,13.63c-3.47-2.49-6.34-7.69-6.89-11.98c-1.07-8.33-0.35-16.9-0.28-25.37
			C1054.58,371.92,1054.85,368.48,1055.05,364.44z"/>
		<path d="M647.07,678.24c-2.09,0.48-5.05,0.97-7.88,1.85c-3.77,1.17-4.72-1.06-5.22-3.95c-0.29-1.65-0.42-3.33-0.76-6.07
			c3.35-1.3,7.52-3.22,11.87-4.5c3.5-1.03,4.55-3.05,4.76-6.45c0.39-6.53,1.19-13.04,1.7-18.21c3.71-0.63,6.39-1.09,9.07-1.55
			c3.15-0.54,4.6,0.93,4.62,3.98c0.03,4.79,0.01,9.59,0.01,14.66c4.54-1.16,8.97-2.32,13.41-3.41c2.99-0.73,4.79-0.46,4.21,3.6
			c-0.31,2.17,0.97,4.56,1.71,7.55c-5.42,1.84-10.95,4.02-16.65,5.54c-3.53,0.94-4.74,2.62-4.87,6.19
			c-0.33,9.63-1.14,19.25-1.53,28.88c-0.1,2.55-0.19,6.03,3.41,6.18c2.05,0.08,5.17-1.11,6.07-2.71c2.41-4.28,6.08-4.16,9.47-4.32
			c1.24,1.55,2.41,2.7,3.19,4.08c0.54,0.97,1.12,2.59,0.68,3.33c-3.82,6.53-9.13,11.61-16.57,13.49
			c-11.62,2.93-20.69-4.68-20.69-16.87C647.07,699.24,647.07,688.95,647.07,678.24z"/>
		<path d="M1107.33,472.54c3.83,4.96,7,1.07,9.65-0.19c3.51-1.68,4.45-0.15,4.72,2.39c0.42,3.94,0.37,7.95,0.28,11.93
			c-0.56,24.81-1.21,49.62-1.76,74.43c-0.15,6.61-0.02,13.22-0.02,20.55c-3.88-1.84-6.2-1.02-6.61,2.37
			c-2.09-0.45-4.47-0.26-5.49-1.35c-1.72-1.85-3.59-4.49-3.63-6.82c-0.19-12.65,0.08-25.32,0.36-37.97
			c0.45-20.81,1.02-41.61,1.57-62.42C1106.43,474.85,1106.78,474.24,1107.33,472.54z"/>
		<path d="M1025.27,426.12c-2.03,0-4.06-0.03-6.08,0.01c-3.46,0.06-5.18-1.52-5.04-5.07c0.35-8.8,0.57-17.6,0.99-26.39
			c0.52-10.78,1.19-21.56,1.82-32.33c0.14-2.48-0.31-5.8,3.98-3.12c0.38,0.24,1.16,0.02,1.67-0.18c4.38-1.7,7.2,0.18,7.13,5.11
			c-0.23,15.77-0.45,31.55-0.97,47.31c-0.17,5.22-1.24,10.4-1.91,15.6C1026.33,426.74,1025.8,426.43,1025.27,426.12z"/>
		<path d="M818.01,621.72c2.94-0.7,5.54-1.38,8.17-1.95c4.26-0.92,4.74,2.13,4.75,5c0.03,6.99-0.19,13.97-0.4,20.96
			c-0.29,9.64-0.56,19.29-1.06,28.92c-0.17,3.35-1,6.67-1.43,9.43c-2.17,0-3.88,0-6.33,0c-0.5-0.29-2.16-0.88-3.22-2.01
			c-1.08-1.15-2.27-2.86-2.24-4.31c0.34-16.63,0.89-33.25,1.41-49.88C817.73,625.57,817.92,623.26,818.01,621.72z"/>
		<path d="M1023.29,347.83c-4.21,0.02-8.02-3.67-8.13-7.87c-0.13-5.01,4.75-10.25,9.57-10.25c4.19,0,8.09,3.72,8.18,7.81
			C1033.02,342.46,1028.03,347.8,1023.29,347.83z"/>
		<path d="M834.18,599.68c0.03,4.68-5.3,10.28-9.78,10.27c-4-0.01-7.81-3.58-7.96-7.47c-0.2-5.02,4.85-10.09,10.17-10.21
			C830.88,592.17,834.15,595.37,834.18,599.68z"/>
		<path class="st2" d="M950.91,551.49c-4.7,7.94-9.41,15.89-14.11,23.83c-0.38-0.22-0.75-0.44-1.13-0.66
			c4.68-7.96,9.36-15.92,14.04-23.88C950.11,551.02,950.51,551.26,950.91,551.49z"/>
		<path class="st2" d="M906.39,426.88c-3.99-2.33-6.97-4.12-10-5.84c-4.46-2.55-6.67-1.38-8.02,3.69c-0.42,1.57-1.95,2.84-3.7,5.27
			c4.77,3.19,9.67,6.47,14.6,9.77c-5.65,6.66-19.03,11.18-26.46,8.05c-3.3-1.39-6.44-4.79-8.15-8.07
			c-6.59-12.64-5.7-26.28-2.72-39.49c1.79-7.94,5.45-15.64,9.34-22.87c4.45-8.29,12.62-11.99,21.59-13.6
			c6.35-1.14,12.01,1.5,13.98,7.01C913.45,389.21,911.49,407.61,906.39,426.88z"/>
		<path class="st2" d="M1054.39,514.83c3.15,11.07,6.29,22.13,9.65,33.94c-8.03,2.36-15.88,4.67-25.13,7.39
			c5.06-14.49,9.75-27.92,14.45-41.34C1053.7,514.82,1054.05,514.83,1054.39,514.83z"/>
		<path class="st2" d="M958.29,428.59c-3.79-16.45,2.67-34.2,16.01-42.99c2.87-1.89,8.08-3.66,10.25-2.32
			c2.61,1.62,4.29,6.59,4.37,10.16c0.31,14.75-12.43,31.66-25.38,34.6C961.82,428.42,960.01,428.42,958.29,428.59z"/>
		<path class="st2" d="M788.03,650.33c-0.01,13.54-6.01,24.29-15.76,33.14c-4.99,4.53-8.44,3.33-9.48-3.39
			c-1.9-12.3,2.06-22.95,10.18-32.08c1.58-1.77,4-2.99,6.26-3.92C786.45,641.14,788.33,642.55,788.03,650.33z"/>
		<path class="st2" d="M882.14,626.41c-0.37,11.63-3,21.5-11.13,28.89c-2.34,2.12-6.69,4.51-8.9,3.65
			c-2.69-1.05-5.38-5.22-5.83-8.36c-1.97-13.51,2.56-25.3,12.04-34.89c1.99-2.01,6.26-3.43,8.79-2.7c2.03,0.58,3.33,4.7,4.34,7.48
			C882.21,622.59,882.01,625.06,882.14,626.41z"/>
	</g>
</g>
</svg>
